<?xml version="1.0" standalone="no"?>
<!DOCTYPE svg PUBLIC "-//W3C//DTD SVG 1.1//EN" "http://www.w3.org/Graphics/SVG/1.1/DTD/svg11.dtd" >
<svg>
<metadata>
Created by FontForge 20090914 at Sat Dec  3 11:52:10 2011
 By www-data
Digitized data copyright The Monotype Corporation 1991-1997. All rights reserved. Twentieth Century&#226;&#132;&#162; is a trademark of The Monotype Corporation which may be registered in certain jurisdictions.
</metadata>
<defs>
<font id="TwCenMT-CondensedMedium" horiz-adv-x="748" >
  <font-face 
    font-family="Tw Cen MT Condensed"
    font-weight="400"
    font-stretch="normal"
    units-per-em="2048"
    panose-1="2 11 6 6 2 1 4 2 2 3"
    ascent="1638"
    descent="-410"
    x-height="874"
    cap-height="1274"
    bbox="-360 -494 2068 1878"
    underline-thickness="120"
    underline-position="-94"
    unicode-range="U+0020-U+F002"
  />
<missing-glyph horiz-adv-x="2048" 
d="M256 0v1536h1536v-1536h-1536zM384 128h1280v1280h-1280v-1280z" />
    <glyph glyph-name=".notdef" horiz-adv-x="2048" 
d="M256 0v1536h1536v-1536h-1536zM384 128h1280v1280h-1280v-1280z" />
    <glyph glyph-name="space" unicode=" " horiz-adv-x="373" 
 />
    <glyph glyph-name="exclam" unicode="!" horiz-adv-x="385" 
d="M293 303h-166v977h166v-977zM211 180c26.667 0 49 -9 67 -27s27 -40.333 27 -67s-9 -49 -27 -67s-40.333 -27 -67 -27c-26 0 -48.167 9.16699 -66.5 27.5s-27.5 40.5 -27.5 66.5c0 25.333 9.33301 47.333 28 66s40.667 28 66 28z" />
    <glyph glyph-name="quotedbl" unicode="&#x22;" horiz-adv-x="727" 
d="M633 1227l-49 -281h-109l-47 281v239h205v-239zM301 1227l-47 -281h-109l-51 281v239h207v-239z" />
    <glyph glyph-name="numbersign" unicode="#" horiz-adv-x="1368" 
d="M1278 356h-324l-84 -401h-122l86 401h-424l-84 -401h-123l84 401h-197v123h223l78 371h-301v123h326l86 403h121l-86 -403h421l84 403h123l-86 -403h199v-123h-223l-76 -371h299v-123zM934 850h-422l-78 -369h424z" />
    <glyph glyph-name="dollar" unicode="$" 
d="M420 737c113.333 -71.333 188.333 -134.503 225 -189.503s55 -124.167 55 -207.5c0 -102 -24.5 -184.667 -73.5 -248s-117.833 -98 -206.5 -104v-113h-72v111c-66 0 -118.167 14.833 -156.5 44.5s-71.5 80.167 -99.5 151.5l133 66
c22.667 -65.333 63.667 -101.666 123 -108.999v434c-94.667 58.667 -163 119.334 -205 182.001s-63 135.334 -63 218.001c0 191.333 89.333 298.333 268 321v90h70v-90c142 0 232 -63.333 270 -190l-145 -74c-25.333 72.667 -66.333 111 -123 115v-408zM348 790.997v352
c-68 -21.333 -102 -76 -102 -164c0 -86 34 -148.667 102 -188zM420 144.997c73.333 26 110 89 110 189c0 83.333 -36.667 147.333 -110 192v-381z" />
    <glyph glyph-name="percent" unicode="%" horiz-adv-x="1409" 
d="M1130 1307l-700 -1379h-96l694 1379h102zM334 1300c58 0 105.5 -24.5 142.5 -73.5s55.5 -163.5 55.5 -343.5c0 -158 -18.833 -264.833 -56.5 -320.5s-85.5 -83.5 -143.5 -83.5c-54.667 0 -100.167 27 -136.5 81s-54.5 167.667 -54.5 341c0 170 20.667 279 62 327
s84.333 72 129 72h2zM268 887c-1.33301 -18 -2 -44 -2 -78c0 -80 4.66699 -137.167 14 -171.5s26 -51.5 50 -51.5c28 0 48 22.167 60 66.5s18 115.5 18 213.5c0 131.333 -4.5 218.5 -13.5 261.5s-27.167 64.5 -54.5 64.5c-14.667 0 -28 -7.66699 -40 -23
s-18.333 -34.333 -19 -57zM1130 762c70 0 119.333 -33.1689 148 -99.502s43 -175.166 43 -326.499c0 -264.667 -68.333 -397 -205 -397c-54 0 -98.5 24.833 -133.5 74.5s-52.5 155.834 -52.5 318.501c0 198.667 22.333 320 67 364s89 66 133 66zM1190 345.998
c1.33301 19.333 2.00098 48.668 2.00098 88.001c0 80 -3.66699 136.5 -11 169.5s-24.333 49.5 -51 49.5c-28 0 -47.833 -20.833 -59.5 -62.5s-17.5 -108.834 -17.5 -201.501c0 -144.667 3.83301 -237.167 11.5 -277.5s25.5 -60.5 53.5 -60.5c16 0 29.667 6.5 41 19.5
s17.666 30.5 18.999 52.5z" />
    <glyph glyph-name="ampersand" unicode="&#x26;" horiz-adv-x="938" 
d="M879 4l-193.001 0.00195312l-49 80c-90.667 -65.333 -172.667 -98 -246 -98c-80.667 0 -148.667 29 -204 87s-83 130 -83 216c0 101.333 66.333 213.333 199 336c-75.333 117.333 -113 221.666 -113 312.999c0 69.333 24.5 128 73.5 176s109.167 72 180.5 72
c78.667 0 139.334 -21.167 182.001 -63.5s64 -102.5 64 -180.5c0 -92.667 -62.667 -201.334 -188 -326.001l172 -284c39.333 52 71.333 99.667 96 143l107 -69c-47.333 -83.333 -89 -148.333 -125 -195zM421.999 743.002c76.667 91.333 115 163.999 115 217.999
c0 26 -8.66699 47.833 -26 65.5s-39 26.5 -65 26.5c-27.333 0 -51.5 -11.167 -72.5 -33.5s-31.5 -48.166 -31.5 -77.499c0 -54.667 26.667 -121 80 -199zM560.999 207.001l-182.001 284.999c-68.667 -67.333 -103 -131 -103 -191c0 -43.333 13.833 -81.166 41.5 -113.499
s59.834 -48.5 96.501 -48.5c46.667 0 95.667 22.667 147 68z" />
    <glyph glyph-name="quotesingle" unicode="'" horiz-adv-x="391" 
d="M299 1221l-49 -275h-111l-47 275v245h207v-245z" />
    <glyph glyph-name="parenleft" unicode="(" horiz-adv-x="385" 
d="M369 -317l-124.999 -67.999c-64.667 114.667 -115.334 255.5 -152.001 422.5s-55 310.167 -55 429.5s16.5 256.333 49.5 411s84.167 303 153.5 445l127 -61c-122 -278.667 -183 -540.334 -183 -785.001c0 -124.667 15.167 -258.167 45.5 -400.5
s76.833 -273.5 139.5 -393.5z" />
    <glyph glyph-name="parenright" unicode=")" horiz-adv-x="385" 
d="M170 1323c63.333 -123.333 112.667 -265.169 148 -425.502s53 -303.833 53 -430.5c0 -120.667 -19.167 -266 -57.5 -436s-87.5 -306.667 -147.5 -410l-123 64c64 136 110.333 272.333 139 409s43 254 43 352c0 124.667 -14.667 258.334 -44 401.001
s-75.333 279.334 -138 410.001z" />
    <glyph glyph-name="asterisk" unicode="*" horiz-adv-x="674" 
d="M406 991c18 -10 50.334 -18.668 97.001 -26.001s79 -16.833 97 -28.5s27 -29.5 27 -53.5c0 -19.333 -6.5 -35.5 -19.5 -48.5s-29.167 -19.5 -48.5 -19.5c-27.333 0 -57.166 21.167 -89.499 63.5s-59.166 69.833 -80.499 82.5l-18 -7
c1.33301 -27.333 10.833 -59.5 28.5 -96.5s26.5 -67.5 26.5 -91.5c0 -19.333 -7 -35.5 -21 -48.5s-31.667 -19.5 -53 -19.5c-12.667 0 -26 7.16699 -40 21.5s-21 29.833 -21 46.5c0 16 8.16699 45 24.5 87s24.5 76.333 24.5 103l-12 11c-17.333 -9.33301 -43 -37 -77 -83
s-66.333 -69 -97 -69c-17.333 0 -33 7.33301 -47 22s-21 30.667 -21 48c0 22.667 8.5 39.667 25.5 51s47.5 19.666 91.5 24.999s79.333 15.333 106 30v21c-21.333 10.667 -54.333 18.834 -99 24.501s-76.5 14.834 -95.5 27.501s-28.5 32 -28.5 58
c0 16.667 7.16699 31.5 21.5 44.5s31.166 19.5 50.499 19.5c24 0 52.667 -21.333 86 -64s60 -70.667 80 -84l16 9c0 22 -8.5 54.167 -25.5 96.5s-25.5 72.833 -25.5 91.5s6.16699 34.667 18.5 48s27.166 20 44.499 20c46.667 0 70 -23.333 70 -70
c0 -15.333 -8.33301 -45.333 -25 -90c-16 -34.667 -24 -60.667 -24 -78v-18l16 -9c25.333 17.333 53.333 46 84 86c32 41.333 62 62 90 62c18 0 33.167 -6.66699 45.5 -20s18.5 -29.333 18.5 -48c0 -24 -8.83301 -42 -26.5 -54s-47.834 -20.667 -90.501 -26
s-76.667 -14 -102 -26z" />
    <glyph glyph-name="plus" unicode="+" horiz-adv-x="1366" 
d="M1227 596h-482v-475h-131v475h-477v131h477v479h131v-479h482v-131z" />
    <glyph glyph-name="comma" unicode="," horiz-adv-x="385" 
d="M350 180l-192 -448l-78 26l141 473z" />
    <glyph glyph-name="hyphen" unicode="-" horiz-adv-x="469" 
d="M414 383h-326v125h326v-125z" />
    <glyph glyph-name="period" unicode="." horiz-adv-x="385" 
d="M207 195c30.667 0 55.667 -9.33203 75 -27.999s29 -42.334 29 -71.001s-9.83301 -53.167 -29.5 -73.5s-43.167 -30.5 -70.5 -30.5c-28 0 -52 10.333 -72 31s-30 45 -30 73s9.5 51.5 28.5 70.5s42.167 28.5 69.5 28.5z" />
    <glyph glyph-name="slash" unicode="/" horiz-adv-x="555" 
d="M526 1317l-385 -1702h-82l387 1702h80z" />
    <glyph glyph-name="zero" unicode="0" 
d="M389 1296c98.667 0 171.833 -45.834 219.5 -137.501s71.5 -262.834 71.5 -513.501c0 -204 -10.333 -344.667 -31 -422s-52 -136.166 -94 -176.499s-97.333 -60.5 -166 -60.5c-71.333 0 -129.5 24.167 -174.5 72.5s-75.333 114.833 -91 199.5s-23.5 224.667 -23.5 420
c0 172.667 9.5 296.834 28.5 372.501s49.5 135.5 91.5 179.5s97.667 66 167 66h2zM497.999 751.999l0.000976562 44.998c0 98.667 -2.16699 165.334 -6.5 200.001s-15.5 67.667 -33.5 99s-41.667 47 -71 47c-42.667 0 -71.334 -27.667 -86.001 -83
s-22 -146.666 -22 -273.999v-41l2 -43v-45l-2 -108v-31c0 -136 7 -233.167 21 -291.5s43.667 -87.5 89 -87.5c30 0 53 12.333 69 37s26.333 62.5 31 113.5s7 169.5 7 355.5v53z" />
    <glyph glyph-name="one" unicode="1" 
d="M475 0h-166v1139h-112v137h278v-1276z" />
    <glyph glyph-name="two" unicode="2" 
d="M102 864c-2 179.333 22.168 295.501 72.501 348.501s125.166 79.5 224.499 79.5c180.667 0 271 -94.667 271 -284c0 -67.333 -12 -140.833 -36 -220.5s-66 -181.167 -126 -304.5l-160 -327h285v-156h-557l223 440c4.66699 5.33301 10.834 17 18.501 35
s13.167 30.333 16.5 37c57.333 114.667 98 207.5 122 278.5s36 137.833 36 200.5c0 47.333 -9.33301 84.166 -28 110.499s-44.334 39.5 -77.001 39.5c-51.333 0 -83.333 -23.833 -96 -71.5s-19.667 -116.167 -21 -205.5h-168z" />
    <glyph glyph-name="three" unicode="3" 
d="M539 672c48 -26 82.1631 -59.332 102.496 -99.999s30.5 -109 30.5 -205c0 -134.667 -23.5 -231.5 -70.5 -290.5s-124.5 -88.5 -232.5 -88.5c-101.333 0 -171.166 27.167 -209.499 81.5s-58.166 141.166 -59.499 260.499h162c1.33301 -128.667 39.666 -193 114.999 -193
c41.333 0 71.166 16.667 89.499 50s27.5 86.333 27.5 159c0 108.667 -14.167 177.667 -42.5 207s-77.166 43.666 -146.499 42.999v152c76.667 0 127.334 13.5 152.001 40.5s37 81.5 37 163.5c0 68 -7.66699 117.167 -23 147.5s-40.666 45.5 -75.999 45.5
c-39.333 0 -66 -15.333 -80 -46s-21.333 -79 -22 -145h-164c1.33301 126.667 23.5 215.667 66.5 267s110.167 77 201.5 77c96.667 0 166.334 -26.667 209.001 -80s64 -140 64 -260c0 -96.667 -9.83301 -162.667 -29.5 -198s-53.5 -64.666 -101.5 -87.999z" />
    <glyph glyph-name="four" unicode="4" 
d="M676 354h-70l-2 -2v-352h-168v354h-336v158l346 780h158v-786h72v-152zM438 506v457h-4l-201 -457h205z" />
    <glyph glyph-name="five" unicode="5" 
d="M662 1118h-288.998l-41 -289c218 -20 327 -148.333 327 -385c0 -132.667 -35.333 -242.5 -106 -329.5s-159.334 -130.5 -266.001 -130.5c-62.667 0 -131.667 21 -207 63l49 150c5.33301 -2 13.666 -6.33301 24.999 -13c42.667 -22.667 82 -34 118 -34
c64.667 0 115.667 25 153 75s56 119 56 207c0 80.667 -19.167 142.5 -57.5 185.5s-93.5 64.5 -165.5 64.5c-25.333 0 -62.333 -5.33301 -111 -16l93 610h422v-158z" />
    <glyph glyph-name="six" unicode="6" 
d="M334 776c38 18 71.332 26.998 99.999 26.998c74.667 0 133.667 -26.667 177 -80s65 -157 65 -311c0 -158.667 -24 -269.334 -72 -332.001s-123 -94 -225 -94c-96 0 -165.833 32.667 -209.5 98s-65.5 169 -65.5 311c0 90.667 4.83301 166.834 14.5 228.501
s26.334 125.334 50.001 191.001s55.167 138.834 94.5 219.501l120 242h190l-155 -311zM286.999 392.998c0 -94 7.33301 -160.502 22 -199.502s42.667 -58.5 84 -58.5c68.667 0 103 69.667 103 209l-2 16v21l2 43v20c0 84.667 -10.167 139.334 -30.5 164.001
s-43.833 37 -70.5 37c-42 0 -70.833 -15.167 -86.5 -45.5s-23.5 -82.166 -23.5 -155.499l2 -18v-33z" />
    <glyph glyph-name="seven" unicode="7" 
d="M715 1274l-367 -1274l-168 2l322 1114h-342v158h555z" />
    <glyph glyph-name="eight" unicode="8" 
d="M508 690c60.667 -30.667 102.498 -71.8311 125.498 -123.498s34.5 -123.834 34.5 -216.501c0 -127.333 -22.5 -219.833 -67.5 -277.5s-117.5 -86.5 -217.5 -86.5c-187.333 0 -281 122 -281 366c0 98 13 172.167 39 222.5s67.667 87.5 125 111.5
c-49.333 25.333 -84.166 57.166 -104.499 95.499s-30.5 100.833 -30.5 187.5c0 113.333 19.5 195.833 58.5 247.5s101.5 77.5 187.5 77.5c92 0 159.333 -24.333 202 -73s64 -126 64 -232c0 -92.667 -10.167 -159.667 -30.5 -201s-55.166 -74 -104.499 -98zM382.998 756.003
c36 0 61 16.001 75 48.001s21 85 21 159c0 63.333 -7 109.166 -21 137.499s-37.667 42.5 -71 42.5c-36.667 0 -61.5 -14 -74.5 -42s-19.5 -75.667 -19.5 -143c0 -72.667 6.5 -124.5 19.5 -155.5s36.5 -46.5 70.5 -46.5zM390.998 137.004c65.333 0 98 69 98 207
c0 94.667 -7 162 -21 202s-41 60 -81 60c-38 0 -64.5 -16.333 -79.5 -49s-22.5 -86.667 -22.5 -162c0 -94 7.16699 -160.5 21.5 -199.5s42.5 -58.5 84.5 -58.5z" />
    <glyph glyph-name="nine" unicode="9" 
d="M444 500c-47.333 -16.667 -84.667 -25.001 -112 -25.001c-68 0 -123 27.167 -165 81.5s-63 153.5 -63 297.5c0 112 8 196.333 24 253s45.833 101.667 89.5 135s101.5 50 173.5 50c98 0 169.333 -30.5 214 -91.5s67 -180.5 67 -358.5c0 -120 -12.167 -223.667 -36.5 -311
s-66.166 -189.166 -125.499 -305.499s-96.333 -191.5 -111 -225.5h-188l31 63c113.333 234 180.666 379.667 201.999 437zM493.999 884.999v26c0 153.333 -35.667 230 -107 230h-4c-36 0 -61.667 -16 -77 -48s-23 -83.667 -23 -155c0 -113.333 6 -192.833 18 -238.5
s40.667 -68.5 86 -68.5c51.333 0 82 19.667 92 59s15 104.333 15 195z" />
    <glyph glyph-name="colon" unicode=":" horiz-adv-x="385" 
d="M211 670c28 0 51.668 -10.1689 71.001 -30.502s29 -45.166 29 -74.499c0 -28.667 -9.5 -52.5 -28.5 -71.5s-42.833 -28.5 -71.5 -28.5s-52.834 9.83301 -72.501 29.5s-29.5 43.834 -29.5 72.501c0 28 9.83301 52.167 29.5 72.5s43.167 30.5 70.5 30.5h2zM213.001 196.998
c27.333 0 50.501 -10.001 69.501 -30.001s28.5 -43.667 28.5 -71c0 -28.667 -9.5 -53.167 -28.5 -73.5s-42.167 -30.5 -69.5 -30.5c-28.667 0 -52.834 9.83301 -72.501 29.5s-29.5 43.167 -29.5 70.5c0 28.667 9.83301 53.334 29.5 74.001s43.167 31 70.5 31h2z" />
    <glyph glyph-name="semicolon" unicode=";" horiz-adv-x="385" 
d="M252 684c27.333 0 51.167 -10 71.5 -30s30.5 -43.333 30.5 -70c0 -30 -10 -55.333 -30 -76s-44.667 -31 -74 -31c-27.333 0 -50.833 10.333 -70.5 31s-29.5 45.334 -29.5 74.001c0 27.333 10 51.166 30 71.499s43.333 30.5 70 30.5h2zM330.001 188l-189 -450l-80 31
l140 471z" />
    <glyph glyph-name="less" unicode="&#x3c;" horiz-adv-x="1366" 
d="M1225 147l-1084 457v119l1084 457v-144l-908 -372l908 -375v-142z" />
    <glyph glyph-name="equal" unicode="=" horiz-adv-x="1366" 
d="M1227 834h-1088v133h1088v-133zM1227 367h-1088v131h1088v-131z" />
    <glyph glyph-name="greater" unicode="&#x3e;" horiz-adv-x="1366" 
d="M1225 604l-1086 -457v142l910 373l-910 374v144l1086 -459v-117z" />
    <glyph glyph-name="question" unicode="?" horiz-adv-x="662" 
d="M116 983c-3.33301 129.333 15.334 213.832 56.001 253.499s93.667 59.5 159 59.5c99.333 0 166.833 -22.167 202.5 -66.5s53.5 -126.5 53.5 -246.5c0 -95.333 -3.33301 -170.166 -10 -224.499s-23.167 -96.333 -49.5 -126s-68.833 -50.167 -127.5 -61.5v-268h-145v363
c71.333 0 120.166 16 146.499 48s39.5 100 39.5 204v67c0 66.667 -6.16699 113.667 -18.5 141s-36.166 41 -71.499 41c-34.667 0 -58.334 -13.833 -71.001 -41.5s-19 -75.167 -19 -142.5h-145zM327 177.999c26 0 48.168 -9 66.501 -27s27.5 -39.667 27.5 -65s-9 -47 -27 -65
s-39.667 -27 -65 -27c-26.667 0 -48.834 8.16699 -66.501 24.5s-26.5 36.833 -26.5 61.5c0 28 8.5 51.333 25.5 70s37.833 28 62.5 28h3z" />
    <glyph glyph-name="at" unicode="@" horiz-adv-x="2079" 
d="M2009 18c-55.333 -113.333 -158.165 -216.33 -308.498 -308.997s-341.833 -139 -574.5 -139c-314 0 -560.667 80.167 -740 240.5s-269 379.833 -269 658.5c0 186 43 361.167 129 525.5s202 288.5 348 372.5s316.667 126 512 126c264 0 472.667 -78.333 626 -235
s230 -333 230 -529c0 -200.667 -64 -373 -192 -517s-262.667 -216 -404 -216c-71.333 0 -121.166 13.167 -149.499 39.5s-44.833 69.166 -49.5 128.499c-98.667 -110.667 -199.667 -166 -303 -166c-104.667 0 -191.834 42.667 -261.501 128s-104.5 193.666 -104.5 324.999
c0 97.333 25 197.833 75 301.5s115.5 184.667 196.5 243s163.167 87.5 246.5 87.5c124.667 0 225.667 -61.333 303 -184l33 156h180l-160 -742c-9.33301 -44.667 -14 -73.334 -14 -86.001c0 -18 7 -33.333 21 -46s31 -19 51 -19c33.333 0 82.666 23.333 147.999 70
s120.666 114.5 165.999 203.5s68 182.833 68 281.5c0 180 -68 330.167 -204 450.5s-306.667 180.5 -512 180.5c-238.667 0 -437 -82 -595 -246s-237 -369.667 -237 -617c0 -242 76 -430.5 228 -565.5s364.667 -202.5 638 -202.5c170 0 317 30.667 441 92s210 131 258 209
h180zM903.001 145.003c52 0 107.333 23.499 166 70.499s105.5 110.667 140.5 191s52.5 159.833 52.5 238.5c0 88.667 -21.5 159.334 -64.5 212.001s-100.167 79 -171.5 79c-86.667 0 -165.667 -51.5 -237 -154.5s-107 -218.833 -107 -347.5c0 -86 20.5 -155.667 61.5 -209
s94.167 -80 159.5 -80z" />
    <glyph glyph-name="A" unicode="A" horiz-adv-x="854" 
d="M793 0h-166l-47 252h-269l-47 -252h-164l275 1274h141zM557 381l-111 604h-4l-106 -604h221z" />
    <glyph glyph-name="B" unicode="B" 
d="M141 1274l201 -0.000976562c109.333 0 190 -26.833 242 -80.5s78 -137.5 78 -251.5c0 -161.333 -61.667 -263.666 -185 -306.999c134 -27.333 201 -133.333 201 -318c0 -101.333 -24.333 -179.5 -73 -234.5s-118 -82.5 -208 -82.5h-256v1274zM311 1143v-443
c65.333 2 112.833 19 142.5 51s44.5 87.667 44.5 167c0 86 -12.833 145 -38.5 177s-75.167 48 -148.5 48zM311 572.999l-0.000976562 -443.999c68 1.33301 116.5 16.166 145.5 44.499s43.5 83.833 43.5 166.5c0 88 -14.667 148.667 -44 182s-77.666 50.333 -144.999 51z" />
    <glyph glyph-name="C" unicode="C" 
d="M668 23c-51.333 -24.667 -102.666 -37 -153.999 -37c-102.667 0 -191.5 39.667 -266.5 119s-112.5 245 -112.5 497c0 273.333 37.5 457.333 112.5 552s165.833 142 272.5 142c40 0 89.333 -6.66699 148 -20v-156c-38.667 15.333 -75 23 -109 23
c-66.667 0 -123.667 -33.833 -171 -101.5s-71 -201.167 -71 -400.5c0 -118.667 5.16699 -211.5 15.5 -278.5s34.166 -120.333 71.499 -160s84.333 -59.5 141 -59.5c33.333 0 74.333 10.333 123 31v-151z" />
    <glyph glyph-name="D" unicode="D" horiz-adv-x="854" 
d="M147 1274h248c117.333 0 209.833 -44.167 277.5 -132.5s101.5 -254.5 101.5 -498.5c0 -235.333 -29.667 -401.333 -89 -498s-166 -145 -320 -145h-218v1274zM319 1143v-1014c72 0 126.667 13.333 164 40s65.166 76.334 83.499 149.001s27.5 181.667 27.5 327
c0 185.333 -17.167 314.666 -51.5 387.999s-101.166 110 -200.499 110h-23z" />
    <glyph glyph-name="E" unicode="E" horiz-adv-x="662" 
d="M602 0h-461v1274h453v-146h-283v-403h262v-145h-262v-439h291v-141z" />
    <glyph glyph-name="F" unicode="F" horiz-adv-x="662" 
d="M602 1128h-293v-401h262v-145h-262v-582h-170v1274h463v-146z" />
    <glyph glyph-name="G" unicode="G" horiz-adv-x="856" 
d="M791 451c0 -146.667 -25.002 -260.503 -75.002 -341.503s-138.333 -121.5 -265 -121.5c-113.333 0 -195.333 41.833 -246 125.5s-76 244.5 -76 482.5c0 28 3 102.5 9 223.5s14.833 203 26.5 246s31.167 83 58.5 120s62 64.667 104 83s91.333 27.5 148 27.5
c80 0 149 -24.167 207 -72.5s90 -112.166 96 -191.499l-162 -59c-13.333 122.667 -60.333 184 -141 184c-62 0 -105.167 -31.833 -129.5 -95.5s-36.5 -169.167 -36.5 -316.5v-65c0 -85.333 2.66699 -166.833 8 -244.5s10.333 -134.5 15 -170.5s14.334 -64.667 29.001 -86
s30.167 -35.666 46.5 -42.999s35.5 -11 57.5 -11c41.333 0 73.333 12.667 96 38s38.334 61.833 47.001 109.5s13 128.834 13 243.501h-156v150h326v-215z" />
    <glyph glyph-name="H" unicode="H" horiz-adv-x="854" 
d="M141 1274h172v-496h265v496h172v-1274h-172v633h-265v-633h-172v1274z" />
    <glyph glyph-name="I" unicode="I" horiz-adv-x="469" 
d="M166 1274h172v-1274h-172v1274z" />
    <glyph glyph-name="J" unicode="J" horiz-adv-x="555" 
d="M463 229c0 -164.667 -81.333 -247 -244 -247c-36.667 0 -92 8 -166 24v156c59.333 -23.333 104.333 -35 135 -35c32 0 57.167 11.5 75.5 34.5s27.5 54.5 27.5 94.5v1018h172v-1045z" />
    <glyph glyph-name="K" unicode="K" horiz-adv-x="854" 
d="M795 0h-197l-276 647h-5v-647h-174v1274h174v-631h5l296 631h175l-310 -619z" />
    <glyph glyph-name="L" unicode="L" horiz-adv-x="662" 
d="M598 0h-461v1274h172v-1131h289v-143z" />
    <glyph glyph-name="M" unicode="M" horiz-adv-x="1044" 
d="M997 0h-159l-64 815h-4l-174 -815h-107l-165 815h-5l-67 -815h-160l125 1274h148l178 -893h4l182 893h148z" />
    <glyph glyph-name="N" unicode="N" horiz-adv-x="854" 
d="M743 0h-135l-325 874h-4v-874h-154v1274h137l326 -875h4v875h151v-1274z" />
    <glyph glyph-name="O" unicode="O" horiz-adv-x="938" 
d="M131 641c0 276.667 27.1689 455.667 81.502 537s143.833 122 268.5 122c142.667 0 237.5 -45.5 284.5 -136.5s70.5 -254.833 70.5 -491.5c0 -212 -10.5 -359 -31.5 -441s-57.333 -142.333 -109 -181s-121.834 -58 -210.501 -58c-91.333 0 -161.333 17.833 -210 53.5
s-84.834 93.5 -108.501 173.5s-35.5 220.667 -35.5 422zM655.002 631c0 242 -14.166 391.5 -42.499 448.5s-70.833 85.5 -127.5 85.5c-66.667 0 -112.334 -34.167 -137.001 -102.5s-37 -183.5 -37 -345.5v-70c0 -180.667 10 -312.5 30 -395.5s68 -124.5 144 -124.5
c46.667 0 86.667 23.333 120 70s50 175.667 50 387v47z" />
    <glyph glyph-name="P" unicode="P" 
d="M131 1274l280.999 -0.000976562c182.667 0 274 -120.333 274 -361c0 -96 -16.167 -171.5 -48.5 -226.5s-72.666 -89.667 -120.999 -104s-119.5 -22.166 -213.5 -23.499v-559h-172v1274zM302.999 691.999c72.667 0 124.667 14.667 156 44s47 88.333 47 177
c0 89.333 -13.667 150 -41 182s-81.333 48 -162 48v-451z" />
    <glyph glyph-name="Q" unicode="Q" horiz-adv-x="938" 
d="M651 12c-72.667 -17.333 -131.333 -26 -176 -26c-129.333 0 -218.666 45 -267.999 135s-74 245 -74 465c0 208 10.167 358.833 30.5 452.5s57.166 160.667 110.499 201s127.333 60.5 222 60.5c120.667 0 208.167 -41.5 262.5 -124.5s81.5 -263.167 81.5 -540.5
c0 -292.667 -32.333 -475 -97 -547l95 -131l-95 -70zM627.001 242c20 42.667 30 168 30 376c0 246 -13.333 398 -40 456s-70 87 -130 87c-67.333 0 -112.833 -34 -136.5 -102s-35.5 -183.333 -35.5 -346c0 -282 13.5 -450.5 40.5 -505.5s67.5 -82.5 121.5 -82.5
c28 0 54 4.66699 78 14l-117 158l99 72z" />
    <glyph glyph-name="R" unicode="R" 
d="M702 0h-177.999l-200 598h-15v-598h-172v1274h238c194 0 291 -108.667 291 -326c0 -98.667 -14.333 -173 -43 -223s-75.334 -87.667 -140.001 -113zM309.001 715c66.667 1.33301 114.833 17.166 144.5 47.499s44.5 85.5 44.5 165.5c0 76.667 -13.5 131.334 -40.5 164.001
s-73.167 49 -138.5 49h-10v-426z" />
    <glyph glyph-name="S" unicode="S" horiz-adv-x="662" 
d="M557 1110c-56 30 -106.333 45 -151 45s-82.834 -16 -114.501 -48s-47.5 -70.667 -47.5 -116c0 -32 9.33301 -66.167 28 -102.5s61.167 -94.333 127.5 -174s117 -148.834 152 -207.501s52.5 -126 52.5 -202c0 -94.667 -28.5 -171.5 -85.5 -230.5
s-131.5 -88.5 -223.5 -88.5c-50.667 0 -112.667 15 -186 45v153c2 -0.666992 4 -1.66699 6 -3c10 -7.33301 31 -18.5 63 -33.5s63.333 -22.5 94 -22.5c50 0 91.167 16.667 123.5 50s48.5 76 48.5 128c0 36 -8.16699 69.333 -24.5 100s-46.166 72.334 -89.499 125.001
l-115 141c-44.667 54.667 -77.667 104.667 -99 150s-32 99.333 -32 162c0 92.667 27 168 81 226s124 87 210 87c60 0 120.667 -15 182 -45v-139z" />
    <glyph glyph-name="T" unicode="T" horiz-adv-x="662" 
d="M627 1128h-195v-1128h-172v1128h-194v146h561v-146z" />
    <glyph glyph-name="U" unicode="U" horiz-adv-x="854" 
d="M745 301c0 -212.667 -95.333 -319 -286 -319c-209.333 0 -314 105.667 -314 317v973h170v-901c0 -96.667 8.33301 -163.5 25 -200.5s53 -55.5 109 -55.5s91 19.5 105 58.5s21 108.167 21 207.5v891h170v-971z" />
    <glyph glyph-name="V" unicode="V" 
d="M59 1274h166l160 -964l172 964h164l-268 -1274h-136z" />
    <glyph glyph-name="W" unicode="W" horiz-adv-x="1130" 
d="M1090 1274l-220 -1274h-137l-153 899h-5l-149 -899h-135l-213 1274h149l142 -881h4l153 881h117l145 -877h5l145 877h152z" />
    <glyph glyph-name="X" unicode="X" 
d="M715 0h-162l-168 436l-170 -436h-166l252 657l-233 617h165l152 -400l154 400h168l-238 -619z" />
    <glyph glyph-name="Y" unicode="Y" 
d="M721 1274l-248 -731v-543h-172v535l-242 739h170l158 -572h4l160 572h170z" />
    <glyph glyph-name="Z" unicode="Z" 
d="M694 1274l-405 -1131h366v-143h-575l403 1128h-354v146h565z" />
    <glyph glyph-name="bracketleft" unicode="[" horiz-adv-x="469" 
d="M436 -360h-295v1654h295v-116h-164v-1420h164v-118z" />
    <glyph glyph-name="backslash" unicode="\" horiz-adv-x="555" 
d="M492 -385h-74l-389 1702h77z" />
    <glyph glyph-name="bracketright" unicode="]" horiz-adv-x="469" 
d="M362 -362h-292v118h159v1420h-161v116h294v-1654z" />
    <glyph glyph-name="asciicircum" unicode="^" horiz-adv-x="961" 
d="M907 690h-182l-246 598l-241 -598h-185l355 801h145z" />
    <glyph glyph-name="underscore" unicode="_" horiz-adv-x="1024" 
d="M1038 -254h-1052v102h1052v-102z" />
    <glyph glyph-name="grave" unicode="`" horiz-adv-x="682" 
d="M465 985h-146l-231 279h242z" />
    <glyph glyph-name="a" unicode="a" 
d="M655 0h-163v106h-5c-42 -78.667 -96.333 -118 -163 -118c-56.667 0 -106.667 26.5 -150 79.5s-65 171.833 -65 356.5c0 164 16.333 282.167 49 354.5s88.667 108.5 168 108.5c37.333 0 67.5 -8.66699 90.5 -26s46.5 -45 70.5 -83h5v96h163v-874zM387 131
c42 0 70.0029 25 84.0029 75s21 135 21 255c0 105.333 -6.33301 179.5 -19 222.5s-39.334 64.5 -80.001 64.5s-68.834 -20 -84.501 -60s-23.5 -112.333 -23.5 -217c0 -123.333 6.16699 -210.833 18.5 -262.5s40.166 -77.5 83.499 -77.5z" />
    <glyph glyph-name="b" unicode="b" 
d="M127 1319h163.999v-561h4c30.667 87.333 87.334 131 170.001 131c61.333 0 111.833 -28.667 151.5 -86s59.5 -168 59.5 -332c0 -200 -17.667 -330.167 -53 -390.5s-90 -90.5 -164 -90.5c-70.667 0 -126 43.667 -166 131h-4v-121h-162v1319zM501.999 406
c0 124 -7.16699 212.333 -21.5 265s-43.5 79 -87.5 79c-37.333 0 -64 -21.333 -80 -64s-24 -111 -24 -205c0 -127.333 7.5 -217.833 22.5 -271.5s43.5 -80.5 85.5 -80.5c38 0 65 21.833 81 65.5s24 114.167 24 211.5z" />
    <glyph glyph-name="c" unicode="c" horiz-adv-x="555" 
d="M510 27c-54 -26 -103.334 -38.999 -148.001 -38.999c-89.333 0 -154.666 36.667 -195.999 110s-62 188.666 -62 345.999c0 167.333 26.333 283.333 79 348s114 97 184 97c34.667 0 81.667 -10.333 141 -31v-139c-38.667 17.333 -69.334 26 -92.001 26
c-47.333 0 -81.666 -25.5 -102.999 -76.5s-32 -131.167 -32 -240.5c0 -198 43 -297 129 -297c24.667 0 58 10.333 100 31v-135z" />
    <glyph glyph-name="d" unicode="d" 
d="M496 1319h163.001v-1319h-161v117h-4c-39.333 -86 -95.333 -129 -168 -129c-42.667 0 -81.834 14.333 -117.501 43s-60.5 68.667 -74.5 120s-21 137 -21 257c0 136.667 6 234.5 18 293.5s35 105 69 138s77.333 49.5 130 49.5c68.667 0 122.667 -39 162 -117h4v547z
M498.001 451c0 108 -6.83398 184.499 -20.501 229.499s-41.167 67.5 -82.5 67.5s-69.666 -23.667 -84.999 -71s-23 -125.666 -23 -234.999c0 -113.333 7.16699 -194.166 21.5 -242.499s41.833 -72.5 82.5 -72.5c40 0 67.833 25.167 83.5 75.5s23.5 133.166 23.5 248.499z
" />
    <glyph glyph-name="e" unicode="e" 
d="M659 408h-367.998c0 -94.667 6.5 -166.167 19.5 -214.5s43.833 -72.5 92.5 -72.5c37.333 0 62.666 14 75.999 42s20.333 72 21 132h149c-4.66699 -204.667 -91.334 -307 -260.001 -307c-181.333 0 -272 143.333 -272 430c0 312.667 94 469 282 469
c71.333 0 132.5 -27 183.5 -81s76.5 -165.667 76.5 -335v-63zM494.002 535c0 86.667 -7 148.834 -21 186.501s-39.333 56.5 -76 56.5c-43.333 0 -71.833 -19.833 -85.5 -59.5s-20.5 -100.834 -20.5 -183.501h203z" />
    <glyph glyph-name="f" unicode="f" horiz-adv-x="469" 
d="M446 1159c-8.66699 8 -27.667 12 -57 12c-53.333 0 -80 -40.667 -80 -122v-175h135v-124h-135v-750h-162v750h-88v124h88v187c0 170.667 65 256 195 256c40 0 74.667 -4 104 -12v-146z" />
    <glyph glyph-name="g" unicode="g" 
d="M652 -111c0 -90.667 -20.999 -156.666 -62.999 -197.999s-109 -62 -201 -62c-98 0 -168 18.667 -210 56s-62.667 106 -62 206h157c5.33301 -95.333 42.333 -143 111 -143c70.667 0 106 35.667 106 107v262h-4c-32 -86 -88.667 -129 -170 -129c-56 0 -103.333 27 -142 81
s-58 182.667 -58 386c0 183.333 17.667 301.166 53 353.499s85 78.5 149 78.5c44 0 77.167 -8 99.5 -24s45.166 -41.667 68.499 -77h4v88h162v-985zM392.001 139.001c38 0 63.833 20.832 77.5 62.499s20.5 111.834 20.5 210.501c0 140.667 -6.16699 233.167 -18.5 277.5
s-38.833 66.5 -79.5 66.5c-37.333 0 -64 -21.5 -80 -64.5s-24 -111.833 -24 -206.5c0 -125.333 5.83301 -214.333 17.5 -267s40.5 -79 86.5 -79z" />
    <glyph glyph-name="h" unicode="h" 
d="M657 0h-161v635c0 83.333 -33.667 125 -101 125c-69.333 0 -104 -46.333 -104 -139v-621h-166v1317h166v-516c56.667 57.333 116.667 86 180 86c124 0 186 -67 186 -201v-686z" />
    <glyph glyph-name="i" unicode="i" horiz-adv-x="385" 
d="M121 1141c0 24 8.83105 45 26.498 63s38.834 27 63.501 27s45.834 -9 63.501 -27s26.5 -39 26.5 -63c0 -24.667 -8.83301 -45.834 -26.5 -63.501s-38.834 -26.5 -63.501 -26.5c-25.333 0 -46.666 8.83301 -63.999 26.5s-26 38.834 -26 63.501zM128.998 874h162v-874h-162
v874z" />
    <glyph glyph-name="j" unicode="j" horiz-adv-x="385" 
d="M115 1141c0 24.667 9 45.833 27 63.5s39.667 26.5 65 26.5c24.667 0 45.834 -9 63.501 -27s26.5 -39 26.5 -63c0 -24.667 -8.83301 -45.834 -26.5 -63.501s-38.834 -26.5 -63.501 -26.5c-25.333 0 -47 8.83301 -65 26.5s-27 38.834 -27 63.501zM127 873.999h162v-1261
h-162v1261z" />
    <glyph glyph-name="k" unicode="k" 
d="M711 0h-172l-244 467h-4v-467h-164v1317h164v-817h4l217 374h170l-221 -395z" />
    <glyph glyph-name="l" unicode="l" horiz-adv-x="385" 
d="M293 0h-164v1319h164v-1319z" />
    <glyph glyph-name="m" unicode="m" horiz-adv-x="1130" 
d="M1030 0h-164.001v637c0 84.667 -32.667 127 -98 127c-70.667 0 -106 -50.667 -106 -152v-612h-162v649c0 32.667 -9.16699 60 -27.5 82s-41.5 33 -69.5 33c-72 0 -108 -46.333 -108 -139v-625h-164v874h166v-79c52 62.667 112.667 94 182 94
c78 0 134.667 -36.333 170 -109c54.667 71.333 120.334 107 197.001 107c122.667 0 184 -70.333 184 -211v-676z" />
    <glyph glyph-name="n" unicode="n" 
d="M287 877l-0.000976562 -84h4c42 64 98.667 96 170 96c126.667 0 190 -69 190 -207v-682h-162v635c0 86 -34 129 -102 129c-31.333 0 -56.166 -11.5 -74.499 -34.5s-27.5 -54.5 -27.5 -94.5v-635h-164v877h166z" />
    <glyph glyph-name="o" unicode="o" 
d="M389 889c83.333 0 150.335 -31.667 201.002 -95s76 -186 76 -368c0 -170.667 -26.5 -286.334 -79.5 -347.001s-118.167 -91 -195.5 -91c-96.667 0 -168.334 36.333 -215.001 109s-70 184.334 -70 335.001c0 184.667 26.667 307 80 367s119.666 90 198.999 90h4z
M492.002 385c0 148.667 -7 247.332 -21 295.999s-42 73 -84 73c-40 0 -67.333 -19 -82 -57s-22 -102.333 -22 -193c0 -176.667 8.16699 -284.667 24.5 -324s43.5 -59 81.5 -59c40.667 0 68 19.833 82 59.5s21 107.834 21 204.501z" />
    <glyph glyph-name="p" unicode="p" 
d="M297 778c26.667 38 52.499 65.667 77.499 83s54.5 26 88.5 26c78 0 133.333 -34.667 166 -104s49 -182.333 49 -339c0 -176.667 -17.167 -297.167 -51.5 -361.5s-88.166 -96.5 -161.499 -96.5c-32 0 -59 7.16699 -81 21.5s-49.667 43.833 -83 88.5h-4v-483h-164v1261h160
v-96h4zM394.999 127c39.333 0 67.333 22.833 84 68.5s25 119.834 25 222.501c0 119.333 -7.66699 204.166 -23 254.499s-44 75.5 -86 75.5c-38.667 0 -65 -20.833 -79 -62.5s-21 -112.5 -21 -212.5c0 -124 5.5 -212.667 16.5 -266s38.833 -80 83.5 -80z" />
    <glyph glyph-name="q" unicode="q" 
d="M659 -387l-163 0.000976562v489h-4c-40.667 -77.333 -95.334 -116 -164.001 -116c-58.667 0 -109.167 26.167 -151.5 78.5s-63.5 166.833 -63.5 343.5c0 78 4.33301 158.167 13 240.5s31.334 142.666 68.001 180.999s82 57.5 136 57.5c70 0 124.667 -40.333 164 -121h4
v108h161v-1261zM393 748.001c-36.667 0 -63.166 -22.165 -79.499 -66.498s-24.5 -114.5 -24.5 -210.5c0 -124.667 6.66699 -213.167 20 -265.5s41.333 -78.5 84 -78.5c39.333 0 66.666 21.667 81.999 65s23 114.666 23 213.999c0 123.333 -5.83301 211.166 -17.5 263.499
s-40.167 78.5 -85.5 78.5h-2z" />
    <glyph glyph-name="r" unicode="r" horiz-adv-x="555" 
d="M496 745c-75.333 -2 -129 -16.333 -161 -43s-48 -86 -48 -178v-524h-166v874h166v-129h4c48 94.667 112.667 142 194 142l11 -2v-140z" />
    <glyph glyph-name="s" unicode="s" horiz-adv-x="647" 
d="M539 725c-50 20.667 -92.999 31.001 -128.999 31.001c-34.667 0 -62.5 -8.66699 -83.5 -26s-31.5 -41 -31.5 -71c0 -24 8.83301 -47.667 26.5 -71s54 -58.833 109 -106.5s94 -90.334 117 -128.001s34.5 -79.167 34.5 -124.5c0 -68.667 -23.333 -125.667 -70 -171
s-106 -68 -178 -68c-46.667 0 -101.334 12.333 -164.001 37v135c60.667 -24.667 112 -37 154 -37c31.333 0 55.833 8.5 73.5 25.5s26.5 39.833 26.5 68.5c0 26.667 -11.667 55 -35 85s-64 68.333 -122 115c-83.333 67.333 -125 144.666 -125 231.999
c0 68.667 22.833 125.834 68.5 171.501s102.5 68.5 170.5 68.5c42 0 94.667 -11 158 -33v-133z" />
    <glyph glyph-name="t" unicode="t" horiz-adv-x="469" 
d="M436 745h-106v-745h-164v745h-105v129h105v238h164v-238h106v-129z" />
    <glyph glyph-name="u" unicode="u" 
d="M651 276c0 -102 -20.333 -175.5 -61 -220.5s-107.667 -67.5 -201 -67.5s-161 22.167 -203 66.5s-63 115.5 -63 213.5v609h162v-611c0 -96.667 34.667 -145 104 -145c36.667 0 62.5 12.333 77.5 37s22.5 65.667 22.5 123v596h162v-601z" />
    <glyph glyph-name="v" unicode="v" 
d="M90 874h164l134 -617l134 617h160l-238 -874h-110z" />
    <glyph glyph-name="w" unicode="w" horiz-adv-x="1044" 
d="M985 874l-215 -874h-115l-108 535h-4l-109 -535h-108l-217 874h151l123 -583h4l117 583h84l123 -585h4l116 585h154z" />
    <glyph glyph-name="x" unicode="x" 
d="M707 0h-164l-158 289l-154 -289h-165l235 446l-223 428h166l141 -266l141 266h168l-225 -425z" />
    <glyph glyph-name="y" unicode="y" 
d="M711 874l-408 -1261h-143l143 465l-237 796h163l144 -602h4l178 602h156z" />
    <glyph glyph-name="z" unicode="z" horiz-adv-x="662" 
d="M614 874l-311 -749h281v-125h-500l305 748h-293v126h518z" />
    <glyph glyph-name="braceleft" unicode="{" horiz-adv-x="684" 
d="M637 -494h-54.9961c-108.667 0 -180.5 18 -215.5 54s-60.5 72.5 -76.5 109.5s-24.333 129.667 -25 278s-6.83398 246.333 -18.501 294s-35.167 83.5 -70.5 107.5s-75 36 -119 36v164c44.667 0 84.667 12.167 120 36.5s58.666 60.333 69.999 108s17.333 146 18 295
s9.16699 241.833 25.5 278.5s42.166 72.5 77.499 107.5s106.666 52.5 213.999 52.5h55v-155h-31c-72.667 0 -119.5 -13.167 -140.5 -39.5s-31.5 -82.166 -31.5 -167.499v-147c0 -137.333 -15 -238.5 -45 -303.5s-84.667 -114.167 -164 -147.5
c75.333 -30.667 129 -78.667 161 -144s48 -168.333 48 -309v-145c0 -84.667 10.167 -140.334 30.5 -167.001s67.5 -40 141.5 -40h31v-156z" />
    <glyph glyph-name="bar" unicode="|" horiz-adv-x="1079" 
d="M606 -276h-133v1701h133v-1701z" />
    <glyph glyph-name="braceright" unicode="}" horiz-adv-x="684" 
d="M627 385c-44.667 0 -84.6709 -12.3311 -120.004 -36.998s-58.666 -60.667 -69.999 -108s-17.333 -145 -18 -293s-9.66699 -241.333 -27 -280s-43.166 -75.167 -77.499 -109.5s-105.166 -51.5 -212.499 -51.5h-55v156h31c72.667 0 119.5 13.167 140.5 39.5
s31.5 82.166 31.5 167.499v145c0 140.667 16 243.667 48 309s85.667 113.333 161 144c-87.333 39.333 -144 93.333 -170 162s-39 165 -39 289v147c0 85.333 -10.5 141.166 -31.5 167.499s-67.833 39.5 -140.5 39.5h-31v155h55c108.667 0 180.5 -17.833 215.5 -53.5
s60.5 -72 76.5 -109s24.333 -129.667 25 -278s6.83398 -246.333 18.501 -294s35.167 -83.5 70.5 -107.5s75 -36 119 -36v-164z" />
    <glyph glyph-name="asciitilde" unicode="~" horiz-adv-x="1343" 
d="M1212 700c-101.333 -84.667 -196.001 -127 -284.001 -127c-48 0 -92.5 7.66699 -133.5 23s-102 42.333 -183 81s-144.167 58 -189.5 58c-85.333 0 -182.333 -45.667 -291 -137v143c104.667 83.333 202.334 125 293.001 125c40 0 80.5 -7 121.5 -21
s103.5 -40.833 187.5 -80.5s147.667 -59.5 191 -59.5c86.667 0 182.667 47 288 141v-146z" />
    <glyph glyph-name="nonbreakingspace" unicode="&#xa0;" horiz-adv-x="373" 
 />
    <glyph glyph-name="exclamdown" unicode="&#xa1;" horiz-adv-x="385" 
d="M207 1112c26 0 48.167 -8.83203 66.5 -26.499s27.5 -38.834 27.5 -63.501c0 -25.333 -8.83301 -47 -26.5 -65s-38.834 -27 -63.501 -27c-27.333 0 -49.833 8.5 -67.5 25.5s-26.5 38.5 -26.5 64.5c0 25.333 8.83301 47 26.5 65s38.834 27 63.501 27zM289 -167.999h-162
v971h162v-971z" />
    <glyph glyph-name="cent" unicode="&#xa2;" horiz-adv-x="555" 
d="M508 35c-30.667 -17.333 -62.666 -31 -95.999 -41v-209h-97v211c-75.333 14 -129.333 56.167 -162 126.5s-49 171.5 -49 303.5c0 146.667 16.5 253 49.5 319s87.5 112 163.5 138v164h97v-162c31.333 -5.33301 62.666 -15 93.999 -29v-139c-41.333 18.667 -72 28 -92 28
c-90 0 -135 -104.333 -135 -313c0 -198 42.333 -297 127 -297c26 0 59.333 11.667 100 35v-135z" />
    <glyph glyph-name="sterling" unicode="&#xa3;" 
d="M721 285c0 -96.667 -19.499 -170.67 -58.499 -222.003s-94.5 -77 -166.5 -77c-52 0 -121.667 23 -209 69c-34 -46 -76.333 -69 -127 -69c-31.333 0 -56.666 9 -75.999 27s-29 41.667 -29 71c0 38.667 13.667 70.834 41 96.501s61.666 38.5 102.999 38.5h32v29
c0 78 -13.667 185 -41 321h-131v125h111c0 10.667 -4.83301 53.834 -14.5 129.501s-14.5 130.834 -14.5 165.501c0 99.333 23.167 175.333 69.5 228s112.833 79 199.5 79c178.667 0 268 -103 268 -309h-162c-4.66699 108 -38 162 -100 162c-68.667 0 -103 -52.667 -103 -158
c0 -15.333 11 -114.333 33 -297h143v-125h-129c6 -51.333 9 -98.333 9 -141c0 -106 -9 -184.333 -27 -235c59.333 -27.333 105.666 -41 138.999 -41c57.333 0 86 46.333 86 139h154v-6z" />
    <glyph glyph-name="currency" unicode="&#xa4;" horiz-adv-x="1401" 
d="M1171 264l-88 -88.001l-127 125c-44 -31.333 -84 -54.166 -120 -68.499s-86.667 -21.5 -152 -21.5c-66.667 0 -117.834 7.16699 -153.501 21.5s-75.167 37.166 -118.5 68.499l-127 -125l-90 88l127 127c-31.333 43.333 -54.333 83 -69 119s-22 87.333 -22 154
c0 64.667 7.33301 114.834 22 150.501s37.667 76.167 69 121.5l-127 125l90 90l127 -127c44 31.333 84 54.166 120 68.499s86.667 21.5 152 21.5s115.833 -7.16699 151.5 -21.5s75.834 -37.166 120.501 -68.499l127 127l88 -90l-127 -127
c31.333 -44.667 54.333 -84.667 69 -120s22 -85.333 22 -150c0 -66.667 -7.33301 -117.667 -22 -153s-37.667 -75.333 -69 -120zM684 337.999c88.667 0 164.834 31.833 228.501 95.5s95.5 140.5 95.5 230.5c0 88.667 -31.833 164.667 -95.5 228s-139.834 95 -228.501 95
c-89.333 0 -166 -31.667 -230 -95s-96 -139.333 -96 -228c0 -90 32 -166.833 96 -230.5s140.667 -95.5 230 -95.5z" />
    <glyph glyph-name="yen" unicode="&#xa5;" 
d="M721 537h-248v-537h-168v537h-246v86h217l-94 282h-123v86h95l-95 281h170l78 -281h164l80 283h170l-96 -283h96v-86h-125l-96 -282h221v-86zM446 905h-114l53 -205h4z" />
    <glyph glyph-name="brokenbar" unicode="&#xa6;" horiz-adv-x="1079" 
d="M606 700h-133v725h133v-725zM606 -276h-133v722h133v-722z" />
    <glyph glyph-name="section" unicode="&#xa7;" horiz-adv-x="707" 
d="M459 1040c-2 84.667 -23.332 127 -63.999 127c-18 0 -32.667 -7.33301 -44 -22s-17 -34 -17 -58c0 -70 36 -146.833 108 -230.5s119.833 -150.667 143.5 -201s35.5 -107.166 35.5 -170.499c0 -138.667 -48 -251.334 -144 -338.001c42 -55.333 72.333 -104 91 -146
s28 -90.667 28 -146c0 -72.667 -19 -130.834 -57 -174.501s-88.667 -65.5 -152 -65.5c-130 0 -198.333 90 -205 270h140c0 -45.333 4.83301 -77.833 14.5 -97.5s26.5 -29.5 50.5 -29.5c17.333 0 32 8.5 44 25.5s18 37.833 18 62.5c0 34 -8.5 67.5 -25.5 100.5
s-52.667 83.333 -107 151s-94 129.334 -119 185.001s-37.5 113.167 -37.5 172.5c0 62.667 11.5 118.5 34.5 167.5s59.833 102.167 110.5 159.5c-40 58 -69.5 108.167 -88.5 150.5s-28.5 90.5 -28.5 144.5c0 70 18.667 126.833 56 170.5s85.666 65.5 144.999 65.5
c63.333 0 113.833 -23.5 151.5 -70.5s58.167 -114.5 61.5 -202.5h-143zM408.001 231c47.333 64.667 70.999 138.666 70.999 221.999c0 98 -34 179.667 -102 245c-49.333 -75.333 -74 -147.666 -74 -216.999c0 -44 8.33301 -84.333 25 -121s43.334 -79.667 80.001 -129z" />
    <glyph glyph-name="dieresis" unicode="&#xa8;" horiz-adv-x="682" 
d="M543 1210c29.333 0 54.333 -10.167 75 -30.5s31 -44.833 31 -73.5c0 -29.333 -10.333 -54.5 -31 -75.5s-45.667 -31.5 -75 -31.5c-28.667 0 -53.334 10.5 -74.001 31.5s-31 46.167 -31 75.5c0 28.667 10.333 53.167 31 73.5s45.334 30.5 74.001 30.5zM139 1210
c28.667 0 53.334 -10.167 74.001 -30.5s31 -44.833 31 -73.5c0 -29.333 -10.333 -54.5 -31 -75.5s-45.334 -31.5 -74.001 -31.5c-29.333 0 -54.333 10.5 -75 31.5s-31 46.167 -31 75.5c0 28.667 10.333 53.167 31 73.5s45.667 30.5 75 30.5z" />
    <glyph glyph-name="copyright" unicode="&#xa9;" horiz-adv-x="1511" 
d="M756 1491c206.667 0 383.834 -73.833 531.501 -221.5s221.5 -325.167 221.5 -532.5s-73.833 -385 -221.5 -533s-324.834 -222 -531.501 -222c-208 0 -386 73.833 -534 221.5s-222 325.5 -222 533.5c0 207.333 74 384.833 222 532.5s326 221.5 534 221.5zM756 106
c172 0 319.667 62 443 186s185 272.333 185 445s-61.667 320.667 -185 444s-271 185 -443 185c-173.333 0 -321.833 -61.667 -445.5 -185s-185.5 -271.333 -185.5 -444c0 -173.333 61.833 -321.833 185.5 -445.5s272.167 -185.5 445.5 -185.5zM1120 578
c-21.333 -86.667 -64.832 -154.167 -130.499 -202.5s-142.834 -72.5 -231.501 -72.5c-123.333 0 -220.5 39.5 -291.5 118.5s-106.5 187.833 -106.5 326.5c0 124 36.833 223.5 110.5 298.5s171.5 112.5 293.5 112.5c86.667 0 159.5 -20.167 218.5 -60.5
s99.5 -98.5 121.5 -174.5l-119 -29c-39.333 102.667 -117 154 -233 154c-76.667 0 -138.5 -29.333 -185.5 -88s-70.5 -136 -70.5 -232s23 -171.167 69 -225.5s109.667 -81.5 191 -81.5c56.667 0 107 17 151 51s74 81 90 141z" />
    <glyph glyph-name="ordfeminine" unicode="&#xaa;" horiz-adv-x="492" 
d="M430 725h-106v70h-5c-22 -32.667 -39.667 -53.834 -53 -63.501s-31 -14.5 -53 -14.5c-50 0 -85.667 22.833 -107 68.5s-32 119.167 -32 220.5c0 102.667 10.667 177.334 32 224.001s56.333 70 105 70c24.667 0 44.167 -4.5 58.5 -13.5s30.833 -28.167 49.5 -57.5h5v63
h106v-567zM254 809c26 0 44.501 13.999 55.501 41.999s16.5 73.333 16.5 136c0 79.333 -3.83301 136.333 -11.5 171s-27.167 52 -58.5 52c-24.667 0 -41.834 -13.667 -51.501 -41s-14.5 -73.666 -14.5 -138.999c0 -80.667 4.16699 -137.667 12.5 -171s25.5 -50 51.5 -50z
" />
    <glyph glyph-name="guillemotleft" unicode="&#xab;" 
d="M670 1026l-105 -469l101 -473h-168l-101 467l103 475h170zM369 1026l-103 -469l101 -473h-170l-101 467l103 475h170z" />
    <glyph glyph-name="logicalnot" unicode="&#xac;" horiz-adv-x="1366" 
d="M1227 356h-131v488h-957v131h1088v-619z" />
    <glyph glyph-name="sfthyphen" unicode="&#xad;" horiz-adv-x="469" 
d="M414 383h-326v125h326v-125z" />
    <glyph glyph-name="registered" unicode="&#xae;" horiz-adv-x="1511" 
d="M756 1491c206.667 0 383.834 -73.833 531.501 -221.5s221.5 -325.167 221.5 -532.5s-73.833 -385 -221.5 -533s-324.834 -222 -531.501 -222c-208 0 -386 73.833 -534 221.5s-222 325.5 -222 533.5c0 207.333 74 384.833 222 532.5s326 221.5 534 221.5zM756 106
c172 0 319.667 62 443 186s185 272.333 185 445s-61.667 320.667 -185 444s-271 185 -443 185c-173.333 0 -321.833 -61.667 -445.5 -185s-185.5 -271.333 -185.5 -444c0 -173.333 61.833 -321.833 185.5 -445.5s272.167 -185.5 445.5 -185.5zM1106 319h-160l-72 127
c-46 82 -83.667 138.833 -113 170.5s-72 47.5 -128 47.5h-78v-345h-131v811h278c88.667 0 153.5 -5.5 194.5 -16.5s77 -35.167 108 -72.5s46.5 -78.333 46.5 -123c0 -64 -20.833 -117.667 -62.5 -161s-98.167 -67.666 -169.5 -72.999v-4
c50.667 -14.667 113.667 -82.334 189 -203.001zM555 776l160 -0.000976562c68 0 117.667 9.83301 149 29.5s47 50.834 47 93.501c0 45.333 -15.5 76.833 -46.5 94.5s-84.167 26.5 -159.5 26.5h-150v-244z" />
    <glyph glyph-name="overscore" unicode="&#xaf;" horiz-adv-x="1024" 
d="M1038 1425h-1052v103h1052v-103z" />
    <glyph glyph-name="degree" unicode="&#xb0;" horiz-adv-x="819" 
d="M410 1491c76 0 141 -27 195 -81s81 -119.333 81 -196c0 -76 -27 -141.333 -81 -196s-119 -82 -195 -82c-76.667 0 -142 27.333 -196 82s-81 120 -81 196s27 141.167 81 195.5s119.333 81.5 196 81.5zM410 1044c46.667 0 86.334 16.667 119.001 50s49 73.333 49 120
s-16.5 86.334 -49.5 119.001s-72.5 49 -118.5 49c-46.667 0 -86.334 -16.333 -119.001 -49s-49 -72.334 -49 -119.001s16.5 -86.667 49.5 -120s72.5 -50 118.5 -50z" />
    <glyph glyph-name="plusminus" unicode="&#xb1;" horiz-adv-x="1366" 
d="M1227 764h-479v-477h-132v477h-477v131h477v479h132v-479h479v-131zM1227 -45h-1088v131h1088v-131z" />
    <glyph glyph-name="twosuperior" unicode="&#xb2;" horiz-adv-x="532" 
d="M80 1022c1.33301 92.667 17.501 160.833 48.501 204.5s81.833 65.5 152.5 65.5c58 0 103.833 -15.833 137.5 -47.5s50.5 -74.5 50.5 -128.5c0 -122.667 -69 -297.334 -207 -524.001h180v-109h-368l51 92c144.667 260.667 217 433 217 517
c0 24.667 -6.5 44.834 -19.5 60.501s-29.833 23.5 -50.5 23.5c-28.667 0 -47.334 -11.5 -56.001 -34.5s-13 -62.833 -13 -119.5h-123z" />
    <glyph glyph-name="threesuperior" unicode="&#xb3;" horiz-adv-x="532" 
d="M362 901c34 -20 57.999 -42.498 71.999 -67.498s21 -61.833 21 -110.5c0 -166.667 -67.667 -250 -203 -250c-69.333 0 -118.333 17.167 -147 51.5s-43.334 88.166 -44.001 161.499h111c1.33301 -68 25.333 -102 72 -102c53.333 0 80 43.667 80 131
c0 51.333 -7.83301 85.666 -23.5 102.999s-47.5 26 -95.5 26v117c40.667 0 70.334 5.33301 89.001 16s28 40.667 28 90c0 79.333 -22 119 -66 119c-24 0 -41 -8.5 -51 -25.5s-15 -44.833 -15 -83.5h-114c2.66699 146 62 219 178 219c134 0 201 -68.667 201 -206
c0 -54.667 -7.16699 -95.667 -21.5 -123s-38.166 -49.333 -71.499 -66z" />
    <glyph glyph-name="acute" unicode="&#xb4;" horiz-adv-x="682" 
d="M592 1264l-221 -279h-148l133 279h236z" />
    <glyph glyph-name="mu1" unicode="&#xb5;" horiz-adv-x="1139" 
d="M997 0h-158.999v125h-4c-32.667 -52.667 -68.667 -90.834 -108 -114.501s-92.333 -35.5 -159 -35.5c-57.333 0 -104 10.333 -140 31s-71 54 -105 100h-5v-514h-178v1469h178v-516c0 -110.667 7.66699 -190.667 23 -240s43.166 -89.666 83.499 -120.999
s85.5 -47 135.5 -47c56.667 0 106.667 15.5 150 46.5s72.833 70.833 88.5 119.5s23.5 128 23.5 238v520h176v-1061z" />
    <glyph glyph-name="paragraph" unicode="&#xb6;" horiz-adv-x="1102" 
d="M1102 1292l-144 -0.000976562v-1700h-170v1700h-223v-1700h-164v1045c-128 8 -227.5 49.333 -298.5 124s-106.5 171.334 -106.5 290.001c0 67.333 13 129.166 39 185.499s61.5 101.833 106.5 136.5s92.333 58.834 142 72.501s111.5 20.5 185.5 20.5h633v-174z" />
    <glyph glyph-name="periodcentered" unicode="&#xb7;" horiz-adv-x="598" 
d="M315 776c30 0 55.333 -10.333 76 -31s31 -45.667 31 -75c0 -30 -10.333 -55.333 -31 -76s-46 -31 -76 -31c-29.333 0 -54.333 10.333 -75 31s-31 46 -31 76c0 29.333 10.333 54.333 31 75s45.667 31 75 31z" />
    <glyph glyph-name="periodcentered" unicode="&#x2219;" horiz-adv-x="598" 
d="M315 776c30 0 55.333 -10.333 76 -31s31 -45.667 31 -75c0 -30 -10.333 -55.333 -31 -76s-46 -31 -76 -31c-29.333 0 -54.333 10.333 -75 31s-31 46 -31 76c0 29.333 10.333 54.333 31 75s45.667 31 75 31z" />
    <glyph glyph-name="cedilla" unicode="&#xb8;" horiz-adv-x="682" 
d="M369 -84c54 -6.66699 95.833 -23.333 125.5 -50s44.5 -59 44.5 -97c0 -57.333 -26.833 -103.5 -80.5 -138.5s-125.834 -52.5 -216.501 -52.5c-39.333 0 -84.666 4 -135.999 12l11 117h22l56 -4c118.667 0 178 25.333 178 76c0 44.667 -47.333 67 -142 67h-16l53 177h133z
" />
    <glyph glyph-name="onesuperior" unicode="&#xb9;" horiz-adv-x="532" 
d="M342 485h-121v705h-67v102h188v-807z" />
    <glyph glyph-name="ordmasculine" unicode="&#xba;" horiz-adv-x="492" 
d="M260 1300c64 0 110.001 -23.5 138.001 -70.5s42 -123.167 42 -228.5c0 -98 -14.667 -170.167 -44 -216.5s-75.333 -69.5 -138 -69.5s-108.334 24.5 -137.001 73.5s-43 126.167 -43 231.5c0 186.667 60.667 280 182 280zM256.001 801
c29.333 0 48.6689 14.499 58.002 43.499s14 78.5 14 148.5c0 92 -4.5 151.833 -13.5 179.5s-28.5 41.5 -58.5 41.5c-24.667 0 -41.834 -13.167 -51.501 -39.5s-14.5 -69.833 -14.5 -130.5c0 -87.333 3.66699 -149.666 11 -186.999s25.666 -56 54.999 -56z" />
    <glyph glyph-name="guillemotright" unicode="&#xbb;" 
d="M664 557l-101 -473h-168l103 475l-103 467h168zM367 555l-103 -471h-168l101 475l-99 467h166z" />
    <glyph glyph-name="onequarter" unicode="&#xbc;" horiz-adv-x="1343" 
d="M364 485h-121v705h-67v102h188v-807zM1212 1315l-895 -1405h-131l895 1405h131zM1284 129h-51v-197h-119v197h-230v115l217 493h134v-495h49v-113zM1114 244v280h-4l-119 -280h123z" />
    <glyph glyph-name="onehalf" unicode="&#xbd;" horiz-adv-x="1343" 
d="M362 485h-121v705h-67v102h188v-807zM1196 1315l-895 -1405h-131l895 1405h131zM906 469c1.33301 92.667 17.501 160.833 48.501 204.5s81.833 65.5 152.5 65.5c58 0 103.833 -15.833 137.5 -47.5s50.5 -74.5 50.5 -128.5c0 -122.667 -69 -297.334 -207 -524.001h180
v-109h-368l51 92c144.667 260.667 217 433 217 517c0 24.667 -6.5 44.834 -19.5 60.501s-29.833 23.5 -50.5 23.5c-28.667 0 -47.334 -11.5 -56.001 -34.5s-13 -62.833 -13 -119.5h-123z" />
    <glyph glyph-name="threequarters" unicode="&#xbe;" horiz-adv-x="1343" 
d="M385 901c34 -20 57.999 -42.498 71.999 -67.498s21 -61.833 21 -110.5c0 -166.667 -67.667 -250 -203 -250c-69.333 0 -118.333 17.167 -147 51.5s-43.334 88.166 -44.001 161.499h111c1.33301 -68 25.333 -102 72 -102c53.333 0 80 43.667 80 131
c0 51.333 -7.83301 85.666 -23.5 102.999s-47.5 26 -95.5 26v117c40.667 0 70.334 5.33301 89.001 16s28 40.667 28 90c0 79.333 -22 119 -66 119c-24 0 -41 -8.5 -51 -25.5s-15 -44.833 -15 -83.5h-114c2.66699 146 62 219 178 219c134 0 201 -68.667 201 -206
c0 -54.667 -7.16699 -95.667 -21.5 -123s-38.166 -49.333 -71.499 -66zM1219 1315l-895 -1405h-131l895 1405h131zM1285 129.002h-51v-197h-119v197h-230v115l217 493h134v-495h49v-113zM1115 244.002v280h-4l-119 -280h123z" />
    <glyph glyph-name="questiondown" unicode="&#xbf;" horiz-adv-x="662" 
d="M367 930c-25.333 0 -46.833 8.83301 -64.5 26.5s-26.5 39.5 -26.5 65.5c0 25.333 9 47 27 65s40 27 66 27s48.167 -9 66.5 -27s27.5 -39.667 27.5 -65s-9.33301 -47 -28 -65s-40.667 -27 -66 -27h-2zM580 127c0 -92 -6.83301 -156.168 -20.5 -192.501
s-36.667 -64.833 -69 -85.5s-79.833 -31 -142.5 -31c-73.333 0 -126.833 14.167 -160.5 42.5s-55.667 60.333 -66 96s-15.5 91.834 -15.5 168.501c0 124.667 5.33301 210.334 16 257.001s30 82.5 58 107.5s66.333 40.167 115 45.5v268h147v-357
c-72.667 -2 -121.834 -19.333 -147.501 -52s-38.5 -99.667 -38.5 -201v-52c0 -65.333 2.16699 -108.333 6.5 -129s13.833 -37.334 28.5 -50.001s34.334 -19 59.001 -19c30 0 51.5 13.333 64.5 40s19.5 70 19.5 130v14h146z" />
    <glyph glyph-name="Agrave" unicode="&#xc0;" horiz-adv-x="854" 
d="M793 0h-166l-47 252h-269l-47 -252h-164l275 1274h141zM557 381l-111 604h-4l-106 -604h221zM551 1372h-146l-231 279h242z" />
    <glyph glyph-name="Aacute" unicode="&#xc1;" horiz-adv-x="854" 
d="M793 0h-166l-47 252h-269l-47 -252h-164l275 1274h141zM557 381l-111 604h-4l-106 -604h221zM678 1651l-221 -279h-148l133 279h236z" />
    <glyph glyph-name="Acircumflex" unicode="&#xc2;" horiz-adv-x="854" 
d="M793 0h-166l-47 252h-269l-47 -252h-164l275 1274h141zM557 381l-111 604h-4l-106 -604h221zM743 1372h-204l-109 170l-115 -170h-204l217 279h190z" />
    <glyph glyph-name="Atilde" unicode="&#xc3;" horiz-adv-x="854" 
d="M793 0h-166l-47 252h-269l-47 -252h-164l275 1274h141zM557 381l-111 604h-4l-106 -604h221zM762 1628c-2.66699 -74 -21.165 -130.667 -55.498 -170s-80.833 -59 -139.5 -59c-44.667 0 -94.334 15.667 -149.001 47c-54 30 -93 45 -117 45c-22.667 0 -41 -8 -55 -24
s-21 -36.667 -21 -62v-8h-133v12c0 62 19.333 113.333 58 154s87.667 61 147 61c30.667 0 76.667 -14 138 -42s102.666 -42 123.999 -42c24 0 41 7 51 21s17 36.333 21 67h131z" />
    <glyph glyph-name="Adieresis" unicode="&#xc4;" horiz-adv-x="854" 
d="M793 0h-166l-47 252h-269l-47 -252h-164l275 1274h141zM557 381l-111 604h-4l-106 -604h221zM645 1597c29.333 0 54.333 -10.167 75 -30.5s31 -44.833 31 -73.5c0 -29.333 -10.333 -54.5 -31 -75.5s-45.667 -31.5 -75 -31.5c-28.667 0 -53.334 10.5 -74.001 31.5
s-31 46.167 -31 75.5c0 28.667 10.333 53.167 31 73.5s45.334 30.5 74.001 30.5zM241 1597c28.667 0 53.334 -10.167 74.001 -30.5s31 -44.833 31 -73.5c0 -29.333 -10.333 -54.5 -31 -75.5s-45.334 -31.5 -74.001 -31.5c-29.333 0 -54.333 10.5 -75 31.5
s-31 46.167 -31 75.5c0 28.667 10.333 53.167 31 73.5s45.667 30.5 75 30.5z" />
    <glyph glyph-name="Aring" unicode="&#xc5;" horiz-adv-x="854" 
d="M793 0h-166l-47 252h-269l-47 -252h-164l275 1274h141zM557 381l-111 604h-4l-106 -604h221zM428 1694c50 0 92.499 -17.832 127.499 -53.499s52.5 -78.834 52.5 -129.501s-17.5 -94 -52.5 -130s-77.5 -54 -127.5 -54s-92.5 18.333 -127.5 55s-52.5 81 -52.5 133
c0 48 17.833 89.833 53.5 125.5s77.834 53.5 126.501 53.5zM429.999 1403c28.667 0 53.667 10.6689 75 32.002s32 46.666 32 75.999c0 30.667 -10.333 56.5 -31 77.5s-46 31.5 -76 31.5c-28.667 0 -53.5 -10.333 -74.5 -31s-31.5 -45.334 -31.5 -74.001
c0 -31.333 10.333 -57.833 31 -79.5s45.667 -32.5 75 -32.5z" />
    <glyph glyph-name="AE" unicode="&#xc6;" horiz-adv-x="1044" 
d="M1001 0h-464v254h-226l-63 -254h-174l364 1274h557v-144h-284v-403h262v-147h-262v-435h290v-145zM539 383v745h-4l-189 -745h193z" />
    <glyph glyph-name="Ccedilla" unicode="&#xc7;" 
d="M668 23c-51.333 -24.667 -102.666 -37 -153.999 -37c-102.667 0 -191.5 39.667 -266.5 119s-112.5 245 -112.5 497c0 273.333 37.5 457.333 112.5 552s165.833 142 272.5 142c40 0 89.333 -6.66699 148 -20v-156c-38.667 15.333 -75 23 -109 23
c-66.667 0 -123.667 -33.833 -171 -101.5s-71 -201.167 -71 -400.5c0 -118.667 5.16699 -211.5 15.5 -278.5s34.166 -120.333 71.499 -160s84.333 -59.5 141 -59.5c33.333 0 74.333 10.333 123 31v-151zM502 -84c54 -6.66699 95.833 -23.333 125.5 -50s44.5 -59 44.5 -97
c0 -57.333 -26.833 -103.5 -80.5 -138.5s-125.834 -52.5 -216.501 -52.5c-39.333 0 -84.666 4 -135.999 12l11 117h22l56 -4c118.667 0 178 25.333 178 76c0 44.667 -47.333 67 -142 67h-16l53 177h133z" />
    <glyph glyph-name="Egrave" unicode="&#xc8;" horiz-adv-x="662" 
d="M602 0h-461v1274h453v-146h-283v-403h262v-145h-262v-439h291v-141zM511 1372h-146l-231 279h242z" />
    <glyph glyph-name="Eacute" unicode="&#xc9;" horiz-adv-x="662" 
d="M602 0h-461v1274h453v-146h-283v-403h262v-145h-262v-439h291v-141zM582 1651l-221 -279h-148l133 279h236z" />
    <glyph glyph-name="Ecircumflex" unicode="&#xca;" horiz-adv-x="662" 
d="M602 0h-461v1274h453v-146h-283v-403h262v-145h-262v-439h291v-141zM674 1372h-204l-109 170l-115 -170h-204l217 279h190z" />
    <glyph glyph-name="Edieresis" unicode="&#xcb;" horiz-adv-x="662" 
d="M602 0h-461v1274h453v-146h-283v-403h262v-145h-262v-439h291v-141zM565 1597c29.333 0 54.333 -10.167 75 -30.5s31 -44.833 31 -73.5c0 -29.333 -10.333 -54.5 -31 -75.5s-45.667 -31.5 -75 -31.5c-28.667 0 -53.334 10.5 -74.001 31.5s-31 46.167 -31 75.5
c0 28.667 10.333 53.167 31 73.5s45.334 30.5 74.001 30.5zM161 1597c28.667 0 53.334 -10.167 74.001 -30.5s31 -44.833 31 -73.5c0 -29.333 -10.333 -54.5 -31 -75.5s-45.334 -31.5 -74.001 -31.5c-29.333 0 -54.333 10.5 -75 31.5s-31 46.167 -31 75.5
c0 28.667 10.333 53.167 31 73.5s45.667 30.5 75 30.5z" />
    <glyph glyph-name="Igrave" unicode="&#xcc;" horiz-adv-x="469" 
d="M166 1274h172v-1274h-172v1274zM359 1372h-146l-231 279h242z" />
    <glyph glyph-name="Iacute" unicode="&#xcd;" horiz-adv-x="469" 
d="M166 1274h172v-1274h-172v1274zM486 1651l-221 -279h-148l133 279h236z" />
    <glyph glyph-name="Icircumflex" unicode="&#xce;" horiz-adv-x="469" 
d="M166 1274h172v-1274h-172v1274zM550 1372h-204l-109 170l-115 -170h-204l217 279h190z" />
    <glyph glyph-name="Idieresis" unicode="&#xcf;" horiz-adv-x="469" 
d="M166 1274h172v-1274h-172v1274zM436 1597c29.333 0 54.333 -10.167 75 -30.5s31 -44.833 31 -73.5c0 -29.333 -10.333 -54.5 -31 -75.5s-45.667 -31.5 -75 -31.5c-28.667 0 -53.334 10.5 -74.001 31.5s-31 46.167 -31 75.5c0 28.667 10.333 53.167 31 73.5
s45.334 30.5 74.001 30.5zM32 1597c28.667 0 53.334 -10.167 74.001 -30.5s31 -44.833 31 -73.5c0 -29.333 -10.333 -54.5 -31 -75.5s-45.334 -31.5 -74.001 -31.5c-29.333 0 -54.333 10.5 -75 31.5s-31 46.167 -31 75.5c0 28.667 10.333 53.167 31 73.5
s45.667 30.5 75 30.5z" />
    <glyph glyph-name="Eth" unicode="&#xd0;" horiz-adv-x="854" 
d="M152 1274h243c117.333 0 209.833 -44.167 277.5 -132.5s101.5 -254.5 101.5 -498.5c0 -235.333 -29.667 -401.333 -89 -498s-166 -145 -320 -145h-213v598h-101v70h101v606zM319 129c72 0 126.667 13.333 164 40s65.166 76.334 83.499 149.001s27.5 181.667 27.5 327
c0 185.333 -17.167 314.666 -51.5 387.999s-101.166 110 -200.499 110h-23v-475h132v-70h-132v-469z" />
    <glyph glyph-name="Ntilde" unicode="&#xd1;" horiz-adv-x="854" 
d="M743 0h-135l-325 874h-4v-874h-154v1274h137l326 -875h4v875h151v-1274zM762 1628c-2.66699 -74 -21.165 -130.667 -55.498 -170s-80.833 -59 -139.5 -59c-44.667 0 -94.334 15.667 -149.001 47c-54 30 -93 45 -117 45c-22.667 0 -41 -8 -55 -24s-21 -36.667 -21 -62v-8
h-133v12c0 62 19.333 113.333 58 154s87.667 61 147 61c30.667 0 76.667 -14 138 -42s102.666 -42 123.999 -42c24 0 41 7 51 21s17 36.333 21 67h131z" />
    <glyph glyph-name="Ograve" unicode="&#xd2;" horiz-adv-x="938" 
d="M131 641c0 276.667 27.1689 455.667 81.502 537s143.833 122 268.5 122c142.667 0 237.5 -45.5 284.5 -136.5s70.5 -254.833 70.5 -491.5c0 -212 -10.5 -359 -31.5 -441s-57.333 -142.333 -109 -181s-121.834 -58 -210.501 -58c-91.333 0 -161.333 17.833 -210 53.5
s-84.834 93.5 -108.501 173.5s-35.5 220.667 -35.5 422zM655.002 631c0 242 -14.166 391.5 -42.499 448.5s-70.833 85.5 -127.5 85.5c-66.667 0 -112.334 -34.167 -137.001 -102.5s-37 -183.5 -37 -345.5v-70c0 -180.667 10 -312.5 30 -395.5s68 -124.5 144 -124.5
c46.667 0 86.667 23.333 120 70s50 175.667 50 387v47zM594.003 1372h-146l-231 279h242z" />
    <glyph glyph-name="Oacute" unicode="&#xd3;" horiz-adv-x="938" 
d="M131 641c0 276.667 27.1689 455.667 81.502 537s143.833 122 268.5 122c142.667 0 237.5 -45.5 284.5 -136.5s70.5 -254.833 70.5 -491.5c0 -212 -10.5 -359 -31.5 -441s-57.333 -142.333 -109 -181s-121.834 -58 -210.501 -58c-91.333 0 -161.333 17.833 -210 53.5
s-84.834 93.5 -108.501 173.5s-35.5 220.667 -35.5 422zM655.002 631c0 242 -14.166 391.5 -42.499 448.5s-70.833 85.5 -127.5 85.5c-66.667 0 -112.334 -34.167 -137.001 -102.5s-37 -183.5 -37 -345.5v-70c0 -180.667 10 -312.5 30 -395.5s68 -124.5 144 -124.5
c46.667 0 86.667 23.333 120 70s50 175.667 50 387v47zM721.003 1651l-221 -279h-148l133 279h236z" />
    <glyph glyph-name="Ocircumflex" unicode="&#xd4;" horiz-adv-x="938" 
d="M131 641c0 276.667 27.1689 455.667 81.502 537s143.833 122 268.5 122c142.667 0 237.5 -45.5 284.5 -136.5s70.5 -254.833 70.5 -491.5c0 -212 -10.5 -359 -31.5 -441s-57.333 -142.333 -109 -181s-121.834 -58 -210.501 -58c-91.333 0 -161.333 17.833 -210 53.5
s-84.834 93.5 -108.501 173.5s-35.5 220.667 -35.5 422zM655.002 631c0 242 -14.166 391.5 -42.499 448.5s-70.833 85.5 -127.5 85.5c-66.667 0 -112.334 -34.167 -137.001 -102.5s-37 -183.5 -37 -345.5v-70c0 -180.667 10 -312.5 30 -395.5s68 -124.5 144 -124.5
c46.667 0 86.667 23.333 120 70s50 175.667 50 387v47zM786.003 1372h-204l-109 170l-115 -170h-204l217 279h190z" />
    <glyph glyph-name="Otilde" unicode="&#xd5;" horiz-adv-x="938" 
d="M131 641c0 276.667 27.1689 455.667 81.502 537s143.833 122 268.5 122c142.667 0 237.5 -45.5 284.5 -136.5s70.5 -254.833 70.5 -491.5c0 -212 -10.5 -359 -31.5 -441s-57.333 -142.333 -109 -181s-121.834 -58 -210.501 -58c-91.333 0 -161.333 17.833 -210 53.5
s-84.834 93.5 -108.501 173.5s-35.5 220.667 -35.5 422zM655.002 631c0 242 -14.166 391.5 -42.499 448.5s-70.833 85.5 -127.5 85.5c-66.667 0 -112.334 -34.167 -137.001 -102.5s-37 -183.5 -37 -345.5v-70c0 -180.667 10 -312.5 30 -395.5s68 -124.5 144 -124.5
c46.667 0 86.667 23.333 120 70s50 175.667 50 387v47zM805.003 1628c-2.66699 -74 -21.165 -130.667 -55.498 -170s-80.833 -59 -139.5 -59c-44.667 0 -94.334 15.667 -149.001 47c-54 30 -93 45 -117 45c-22.667 0 -41 -8 -55 -24s-21 -36.667 -21 -62v-8h-133v12
c0 62 19.333 113.333 58 154s87.667 61 147 61c30.667 0 76.667 -14 138 -42s102.666 -42 123.999 -42c24 0 41 7 51 21s17 36.333 21 67h131z" />
    <glyph glyph-name="Odieresis" unicode="&#xd6;" horiz-adv-x="938" 
d="M131 641c0 276.667 27.1689 455.667 81.502 537s143.833 122 268.5 122c142.667 0 237.5 -45.5 284.5 -136.5s70.5 -254.833 70.5 -491.5c0 -212 -10.5 -359 -31.5 -441s-57.333 -142.333 -109 -181s-121.834 -58 -210.501 -58c-91.333 0 -161.333 17.833 -210 53.5
s-84.834 93.5 -108.501 173.5s-35.5 220.667 -35.5 422zM655.002 631c0 242 -14.166 391.5 -42.499 448.5s-70.833 85.5 -127.5 85.5c-66.667 0 -112.334 -34.167 -137.001 -102.5s-37 -183.5 -37 -345.5v-70c0 -180.667 10 -312.5 30 -395.5s68 -124.5 144 -124.5
c46.667 0 86.667 23.333 120 70s50 175.667 50 387v47zM684.003 1597c29.333 0 54.333 -10.167 75 -30.5s31 -44.833 31 -73.5c0 -29.333 -10.333 -54.5 -31 -75.5s-45.667 -31.5 -75 -31.5c-28.667 0 -53.334 10.5 -74.001 31.5s-31 46.167 -31 75.5
c0 28.667 10.333 53.167 31 73.5s45.334 30.5 74.001 30.5zM280.003 1597c28.667 0 53.334 -10.167 74.001 -30.5s31 -44.833 31 -73.5c0 -29.333 -10.333 -54.5 -31 -75.5s-45.334 -31.5 -74.001 -31.5c-29.333 0 -54.333 10.5 -75 31.5s-31 46.167 -31 75.5
c0 28.667 10.333 53.167 31 73.5s45.667 30.5 75 30.5z" />
    <glyph glyph-name="multiply" unicode="&#xd7;" horiz-adv-x="1366" 
d="M1186 1069l-408 -407l404 -406l-92 -92l-406 405l-405 -405l-93 92l406 406l-408 409l92 92l408 -409l410 409z" />
    <glyph glyph-name="Oslash" unicode="&#xd8;" horiz-adv-x="938" 
d="M754 1174c54.667 -74.667 82.002 -248.333 82.002 -521c0 -213.333 -12.167 -361.166 -36.5 -443.499s-61.333 -140.5 -111 -174.5s-116.834 -51 -201.501 -51c-64 0 -110.333 4.83301 -139 14.5s-59.334 26.5 -92.001 50.5l-41 -86l-61 29l53 121
c-54.667 60 -82 217.667 -82 473c0 155.333 7.5 287.666 22.5 396.999s49.167 188.5 102.5 237.5s134 73.5 242 73.5c55.333 0 95.833 -5 121.5 -15s56.167 -26 91.5 -48l32 76l64 -25zM621.002 1040c-26 78 -72 117 -138 117c-68 0 -113.667 -34.333 -137 -103
s-35 -186.667 -35 -354l6 -317v-23h5zM653.002 528.001l-0.000976562 178.999c0 68.667 -2 142.334 -6 221.001h-4l-303 -692c26.667 -76.667 74.334 -115 143.001 -115c62.667 0 106.667 32 132 96s38 167.667 38 311z" />
    <glyph glyph-name="Ugrave" unicode="&#xd9;" horiz-adv-x="854" 
d="M745 301c0 -212.667 -95.333 -319 -286 -319c-209.333 0 -314 105.667 -314 317v973h170v-901c0 -96.667 8.33301 -163.5 25 -200.5s53 -55.5 109 -55.5s91 19.5 105 58.5s21 108.167 21 207.5v891h170v-971zM551 1372h-146l-231 279h242z" />
    <glyph glyph-name="Uacute" unicode="&#xda;" horiz-adv-x="854" 
d="M745 301c0 -212.667 -95.333 -319 -286 -319c-209.333 0 -314 105.667 -314 317v973h170v-901c0 -96.667 8.33301 -163.5 25 -200.5s53 -55.5 109 -55.5s91 19.5 105 58.5s21 108.167 21 207.5v891h170v-971zM678 1651l-221 -279h-148l133 279h236z" />
    <glyph glyph-name="Ucircumflex" unicode="&#xdb;" horiz-adv-x="854" 
d="M745 301c0 -212.667 -95.333 -319 -286 -319c-209.333 0 -314 105.667 -314 317v973h170v-901c0 -96.667 8.33301 -163.5 25 -200.5s53 -55.5 109 -55.5s91 19.5 105 58.5s21 108.167 21 207.5v891h170v-971zM743 1372h-204l-109 170l-115 -170h-204l217 279h190z" />
    <glyph glyph-name="Udieresis" unicode="&#xdc;" horiz-adv-x="854" 
d="M745 301c0 -212.667 -95.333 -319 -286 -319c-209.333 0 -314 105.667 -314 317v973h170v-901c0 -96.667 8.33301 -163.5 25 -200.5s53 -55.5 109 -55.5s91 19.5 105 58.5s21 108.167 21 207.5v891h170v-971zM649 1597c29.333 0 54.333 -10.167 75 -30.5
s31 -44.833 31 -73.5c0 -29.333 -10.333 -54.5 -31 -75.5s-45.667 -31.5 -75 -31.5c-28.667 0 -53.334 10.5 -74.001 31.5s-31 46.167 -31 75.5c0 28.667 10.333 53.167 31 73.5s45.334 30.5 74.001 30.5zM245 1597c28.667 0 53.334 -10.167 74.001 -30.5
s31 -44.833 31 -73.5c0 -29.333 -10.333 -54.5 -31 -75.5s-45.334 -31.5 -74.001 -31.5c-29.333 0 -54.333 10.5 -75 31.5s-31 46.167 -31 75.5c0 28.667 10.333 53.167 31 73.5s45.667 30.5 75 30.5z" />
    <glyph glyph-name="Yacute" unicode="&#xdd;" 
d="M721 1274l-248 -731v-543h-172v535l-242 739h170l158 -572h4l160 572h170zM625 1651l-221 -279h-148l133 279h236z" />
    <glyph glyph-name="Thorn" unicode="&#xde;" 
d="M301 991h105c185.333 0 278 -118.667 278 -356c0 -123.333 -26.167 -213.5 -78.5 -270.5s-134.833 -85.5 -247.5 -85.5h-57v-279h-168v1274h168v-283zM301 412h27c117.333 0 176 69.667 176 209c0 160.667 -50.667 241 -152 241h-51v-450z" />
    <glyph glyph-name="germandbls" unicode="&#xdf;" 
d="M512 768c65.333 -37.333 108.33 -82.667 128.997 -136s31 -128 31 -224c0 -167.333 -19.667 -279.166 -59 -335.499s-90.666 -84.5 -153.999 -84.5c-28 0 -56.667 6 -86 18v133h20c39.333 0 66 19.5 80 58.5s21 105.5 21 199.5c0 109.333 -9.16699 183.833 -27.5 223.5
s-49.5 59.5 -93.5 59.5v147c34.667 8 59 25 73 51s21 74.667 21 146c0 109.333 -30 164 -90 164c-25.333 0 -46.666 -12 -63.999 -36s-26 -53 -26 -87v-1065h-168v1077c0 78.667 22.833 139 68.5 181s111.5 63 197.5 63c90.667 0 156.334 -23.667 197.001 -71
s61 -123.333 61 -228c0 -114.667 -43.667 -199.334 -131 -254.001z" />
    <glyph glyph-name="agrave" unicode="&#xe0;" 
d="M655 0h-163v106h-5c-42 -78.667 -96.333 -118 -163 -118c-56.667 0 -106.667 26.5 -150 79.5s-65 171.833 -65 356.5c0 164 16.333 282.167 49 354.5s88.667 108.5 168 108.5c37.333 0 67.5 -8.66699 90.5 -26s46.5 -45 70.5 -83h5v96h163v-874zM387 131
c42 0 70.0029 25 84.0029 75s21 135 21 255c0 105.333 -6.33301 179.5 -19 222.5s-39.334 64.5 -80.001 64.5s-68.834 -20 -84.501 -60s-23.5 -112.333 -23.5 -217c0 -123.333 6.16699 -210.833 18.5 -262.5s40.166 -77.5 83.499 -77.5zM550.003 985h-146l-231 279h242z" />
    <glyph glyph-name="aacute" unicode="&#xe1;" 
d="M655 0h-163v106h-5c-42 -78.667 -96.333 -118 -163 -118c-56.667 0 -106.667 26.5 -150 79.5s-65 171.833 -65 356.5c0 164 16.333 282.167 49 354.5s88.667 108.5 168 108.5c37.333 0 67.5 -8.66699 90.5 -26s46.5 -45 70.5 -83h5v96h163v-874zM387 131
c42 0 70.0029 25 84.0029 75s21 135 21 255c0 105.333 -6.33301 179.5 -19 222.5s-39.334 64.5 -80.001 64.5s-68.834 -20 -84.501 -60s-23.5 -112.333 -23.5 -217c0 -123.333 6.16699 -210.833 18.5 -262.5s40.166 -77.5 83.499 -77.5zM625.003 1264l-221 -279h-148
l133 279h236z" />
    <glyph glyph-name="acircumflex" unicode="&#xe2;" 
d="M655 0h-163v106h-5c-42 -78.667 -96.333 -118 -163 -118c-56.667 0 -106.667 26.5 -150 79.5s-65 171.833 -65 356.5c0 164 16.333 282.167 49 354.5s88.667 108.5 168 108.5c37.333 0 67.5 -8.66699 90.5 -26s46.5 -45 70.5 -83h5v96h163v-874zM387 131
c42 0 70.0029 25 84.0029 75s21 135 21 255c0 105.333 -6.33301 179.5 -19 222.5s-39.334 64.5 -80.001 64.5s-68.834 -20 -84.501 -60s-23.5 -112.333 -23.5 -217c0 -123.333 6.16699 -210.833 18.5 -262.5s40.166 -77.5 83.499 -77.5zM721.003 985h-204l-109 170
l-115 -170h-204l217 279h190z" />
    <glyph glyph-name="atilde" unicode="&#xe3;" 
d="M655 0h-163v106h-5c-42 -78.667 -96.333 -118 -163 -118c-56.667 0 -106.667 26.5 -150 79.5s-65 171.833 -65 356.5c0 164 16.333 282.167 49 354.5s88.667 108.5 168 108.5c37.333 0 67.5 -8.66699 90.5 -26s46.5 -45 70.5 -83h5v96h163v-874zM387 131
c42 0 70.0029 25 84.0029 75s21 135 21 255c0 105.333 -6.33301 179.5 -19 222.5s-39.334 64.5 -80.001 64.5s-68.834 -20 -84.501 -60s-23.5 -112.333 -23.5 -217c0 -123.333 6.16699 -210.833 18.5 -262.5s40.166 -77.5 83.499 -77.5zM737.003 1241
c-2.66699 -74 -21.165 -130.667 -55.498 -170s-80.833 -59 -139.5 -59c-44.667 0 -94.334 15.667 -149.001 47c-54 30 -93 45 -117 45c-22.667 0 -41 -8 -55 -24s-21 -36.667 -21 -62v-8h-133v12c0 62 19.333 113.333 58 154s87.667 61 147 61c30.667 0 76.667 -14 138 -42
s102.666 -42 123.999 -42c24 0 41 7 51 21s17 36.333 21 67h131z" />
    <glyph glyph-name="adieresis" unicode="&#xe4;" 
d="M655 0h-163v106h-5c-42 -78.667 -96.333 -118 -163 -118c-56.667 0 -106.667 26.5 -150 79.5s-65 171.833 -65 356.5c0 164 16.333 282.167 49 354.5s88.667 108.5 168 108.5c37.333 0 67.5 -8.66699 90.5 -26s46.5 -45 70.5 -83h5v96h163v-874zM387 131
c42 0 70.0029 25 84.0029 75s21 135 21 255c0 105.333 -6.33301 179.5 -19 222.5s-39.334 64.5 -80.001 64.5s-68.834 -20 -84.501 -60s-23.5 -112.333 -23.5 -217c0 -123.333 6.16699 -210.833 18.5 -262.5s40.166 -77.5 83.499 -77.5zM592.003 1210
c29.333 0 54.333 -10.167 75 -30.5s31 -44.833 31 -73.5c0 -29.333 -10.333 -54.5 -31 -75.5s-45.667 -31.5 -75 -31.5c-28.667 0 -53.334 10.5 -74.001 31.5s-31 46.167 -31 75.5c0 28.667 10.333 53.167 31 73.5s45.334 30.5 74.001 30.5zM188.003 1210
c28.667 0 53.334 -10.167 74.001 -30.5s31 -44.833 31 -73.5c0 -29.333 -10.333 -54.5 -31 -75.5s-45.334 -31.5 -74.001 -31.5c-29.333 0 -54.333 10.5 -75 31.5s-31 46.167 -31 75.5c0 28.667 10.333 53.167 31 73.5s45.667 30.5 75 30.5z" />
    <glyph glyph-name="aring" unicode="&#xe5;" 
d="M655 0h-163v106h-5c-42 -78.667 -96.333 -118 -163 -118c-56.667 0 -106.667 26.5 -150 79.5s-65 171.833 -65 356.5c0 164 16.333 282.167 49 354.5s88.667 108.5 168 108.5c37.333 0 67.5 -8.66699 90.5 -26s46.5 -45 70.5 -83h5v96h163v-874zM387 131
c42 0 70.0029 25 84.0029 75s21 135 21 255c0 105.333 -6.33301 179.5 -19 222.5s-39.334 64.5 -80.001 64.5s-68.834 -20 -84.501 -60s-23.5 -112.333 -23.5 -217c0 -123.333 6.16699 -210.833 18.5 -262.5s40.166 -77.5 83.499 -77.5zM375.003 1307
c50 0 92.499 -17.832 127.499 -53.499s52.5 -78.834 52.5 -129.501s-17.5 -94 -52.5 -130s-77.5 -54 -127.5 -54s-92.5 18.333 -127.5 55s-52.5 81 -52.5 133c0 48 17.833 89.833 53.5 125.5s77.834 53.5 126.501 53.5zM377.002 1016c28.667 0 53.667 10.6689 75 32.002
s32 46.666 32 75.999c0 30.667 -10.333 56.5 -31 77.5s-46 31.5 -76 31.5c-28.667 0 -53.5 -10.333 -74.5 -31s-31.5 -45.334 -31.5 -74.001c0 -31.333 10.333 -57.833 31 -79.5s45.667 -32.5 75 -32.5z" />
    <glyph glyph-name="ae" unicode="&#xe6;" horiz-adv-x="1130" 
d="M1034 401l-370 0.00195312c0 -101.333 8.33301 -174 25 -218s45.667 -66 87 -66c32 0 54.833 14.167 68.5 42.5s20.834 72.166 21.501 131.499h158c-2 -114.667 -28.333 -194.834 -79 -240.501s-101.334 -68.5 -152.001 -68.5c-54 0 -102.667 25.667 -146 77v-59h-151v94
h-4c-37.333 -72 -92.666 -108 -165.999 -108c-44 0 -82.333 13.5 -115 40.5s-57.834 67.5 -75.501 121.5s-26.5 148.667 -26.5 284c0 138.667 9.16699 236 27.5 292s44.833 97.167 79.5 123.5s70.667 39.5 108 39.5c66 0 122 -32 168 -96h4v83h151v-55
c50.667 45.333 100.667 68 150 68c54.667 0 102 -20.5 142 -61.5s65.5 -89 76.5 -144s17.167 -148.5 18.5 -280.5zM866 532.002c-0.666992 82 -8 142.5 -22 181.5s-39.333 58.5 -76 58.5c-39.333 0 -66.5 -18.5 -81.5 -55.5s-22.5 -98.5 -22.5 -184.5h202zM391 743.002
c-36 0 -62 -21.334 -78 -64.001s-24 -110.667 -24 -204c0 -125.333 6.66699 -214.666 20 -267.999s40.666 -80 81.999 -80c38.667 0 65.834 22.5 81.501 67.5s23.5 118.833 23.5 221.5c0 120 -6.16699 204.5 -18.5 253.5s-40.5 73.5 -84.5 73.5h-2z" />
    <glyph glyph-name="ccedilla" unicode="&#xe7;" horiz-adv-x="555" 
d="M510 27c-54 -26 -103.334 -38.999 -148.001 -38.999c-89.333 0 -154.666 36.667 -195.999 110s-62 188.666 -62 345.999c0 167.333 26.333 283.333 79 348s114 97 184 97c34.667 0 81.667 -10.333 141 -31v-139c-38.667 17.333 -69.334 26 -92.001 26
c-47.333 0 -81.666 -25.5 -102.999 -76.5s-32 -131.167 -32 -240.5c0 -198 43 -297 129 -297c24.667 0 58 10.333 100 31v-135zM358.999 -83.999c54 -6.66699 95.833 -23.333 125.5 -50s44.5 -59 44.5 -97c0 -57.333 -26.833 -103.5 -80.5 -138.5
s-125.834 -52.5 -216.501 -52.5c-39.333 0 -84.666 4 -135.999 12l11 117h22l56 -4c118.667 0 178 25.333 178 76c0 44.667 -47.333 67 -142 67h-16l53 177h133z" />
    <glyph glyph-name="egrave" unicode="&#xe8;" 
d="M659 408h-367.998c0 -94.667 6.5 -166.167 19.5 -214.5s43.833 -72.5 92.5 -72.5c37.333 0 62.666 14 75.999 42s20.333 72 21 132h149c-4.66699 -204.667 -91.334 -307 -260.001 -307c-181.333 0 -272 143.333 -272 430c0 312.667 94 469 282 469
c71.333 0 132.5 -27 183.5 -81s76.5 -165.667 76.5 -335v-63zM494.002 535c0 86.667 -7 148.834 -21 186.501s-39.333 56.5 -76 56.5c-43.333 0 -71.833 -19.833 -85.5 -59.5s-20.5 -100.834 -20.5 -183.501h203zM498.002 985h-146l-231 279h242z" />
    <glyph glyph-name="eacute" unicode="&#xe9;" 
d="M659 408h-367.998c0 -94.667 6.5 -166.167 19.5 -214.5s43.833 -72.5 92.5 -72.5c37.333 0 62.666 14 75.999 42s20.333 72 21 132h149c-4.66699 -204.667 -91.334 -307 -260.001 -307c-181.333 0 -272 143.333 -272 430c0 312.667 94 469 282 469
c71.333 0 132.5 -27 183.5 -81s76.5 -165.667 76.5 -335v-63zM494.002 535c0 86.667 -7 148.834 -21 186.501s-39.333 56.5 -76 56.5c-43.333 0 -71.833 -19.833 -85.5 -59.5s-20.5 -100.834 -20.5 -183.501h203zM625.002 1264l-221 -279h-148l133 279h236z" />
    <glyph glyph-name="ecircumflex" unicode="&#xea;" 
d="M659 408h-367.998c0 -94.667 6.5 -166.167 19.5 -214.5s43.833 -72.5 92.5 -72.5c37.333 0 62.666 14 75.999 42s20.333 72 21 132h149c-4.66699 -204.667 -91.334 -307 -260.001 -307c-181.333 0 -272 143.333 -272 430c0 312.667 94 469 282 469
c71.333 0 132.5 -27 183.5 -81s76.5 -165.667 76.5 -335v-63zM494.002 535c0 86.667 -7 148.834 -21 186.501s-39.333 56.5 -76 56.5c-43.333 0 -71.833 -19.833 -85.5 -59.5s-20.5 -100.834 -20.5 -183.501h203zM689.002 985h-204l-109 170l-115 -170h-204l217 279h190z
" />
    <glyph glyph-name="edieresis" unicode="&#xeb;" 
d="M659 408h-367.998c0 -94.667 6.5 -166.167 19.5 -214.5s43.833 -72.5 92.5 -72.5c37.333 0 62.666 14 75.999 42s20.333 72 21 132h149c-4.66699 -204.667 -91.334 -307 -260.001 -307c-181.333 0 -272 143.333 -272 430c0 312.667 94 469 282 469
c71.333 0 132.5 -27 183.5 -81s76.5 -165.667 76.5 -335v-63zM494.002 535c0 86.667 -7 148.834 -21 186.501s-39.333 56.5 -76 56.5c-43.333 0 -71.833 -19.833 -85.5 -59.5s-20.5 -100.834 -20.5 -183.501h203zM576.002 1210c29.333 0 54.333 -10.167 75 -30.5
s31 -44.833 31 -73.5c0 -29.333 -10.333 -54.5 -31 -75.5s-45.667 -31.5 -75 -31.5c-28.667 0 -53.334 10.5 -74.001 31.5s-31 46.167 -31 75.5c0 28.667 10.333 53.167 31 73.5s45.334 30.5 74.001 30.5zM172.002 1210c28.667 0 53.334 -10.167 74.001 -30.5
s31 -44.833 31 -73.5c0 -29.333 -10.333 -54.5 -31 -75.5s-45.334 -31.5 -74.001 -31.5c-29.333 0 -54.333 10.5 -75 31.5s-31 46.167 -31 75.5c0 28.667 10.333 53.167 31 73.5s45.667 30.5 75 30.5z" />
    <glyph glyph-name="igrave" unicode="&#xec;" horiz-adv-x="385" 
d="M131 872h162v-872h-162v872zM318 985h-146l-231 279h242z" />
    <glyph glyph-name="iacute" unicode="&#xed;" horiz-adv-x="385" 
d="M131 872h162v-872h-162v872zM445 1264l-221 -279h-148l133 279h236z" />
    <glyph glyph-name="icircumflex" unicode="&#xee;" horiz-adv-x="385" 
d="M131 872h162v-872h-162v872zM509 985h-204l-109 170l-115 -170h-204l217 279h190z" />
    <glyph glyph-name="idieresis" unicode="&#xef;" horiz-adv-x="385" 
d="M131 872h162v-872h-162v872zM395 1210c29.333 0 54.333 -10.167 75 -30.5s31 -44.833 31 -73.5c0 -29.333 -10.333 -54.5 -31 -75.5s-45.667 -31.5 -75 -31.5c-28.667 0 -53.334 10.5 -74.001 31.5s-31 46.167 -31 75.5c0 28.667 10.333 53.167 31 73.5
s45.334 30.5 74.001 30.5zM-9 1210c28.667 0 53.334 -10.167 74.001 -30.5s31 -44.833 31 -73.5c0 -29.333 -10.333 -54.5 -31 -75.5s-45.334 -31.5 -74.001 -31.5c-29.333 0 -54.333 10.5 -75 31.5s-31 46.167 -31 75.5c0 28.667 10.333 53.167 31 73.5
s45.667 30.5 75 30.5z" />
    <glyph glyph-name="eth" unicode="&#xf0;" 
d="M666 408c0 -281.333 -92.334 -421.999 -277.001 -421.999c-88.667 0 -157.167 33.833 -205.5 101.5s-72.5 164.167 -72.5 289.5v131c0 115.333 23.833 206.666 71.5 273.999s111.834 101 192.501 101c32 0 59.333 -5 82 -15c-21.333 99.333 -59 182 -113 248l-158 -98
l-36 53l151 94c-26.667 26 -54 48 -82 66l86 82c41.333 -22 79 -47.333 113 -76l121 74l34 -51l-110 -70c67.333 -70 118 -164.333 152 -283s51 -242 51 -370v-129zM488.999 319.001v254c0 54 -9.5 97.667 -28.5 131s-43.5 50 -73.5 50c-68 0 -102 -60.333 -102 -181v-254
c0 -133.333 35.333 -200 106 -200c65.333 0 98 66.667 98 200z" />
    <glyph glyph-name="ntilde" unicode="&#xf1;" 
d="M287 877l-0.000976562 -84h4c42 64 98.667 96 170 96c126.667 0 190 -69 190 -207v-682h-162v635c0 86 -34 129 -102 129c-31.333 0 -56.166 -11.5 -74.499 -34.5s-27.5 -54.5 -27.5 -94.5v-635h-164v877h166zM708.999 1241c-2.66699 -74 -21.165 -130.667 -55.498 -170
s-80.833 -59 -139.5 -59c-44.667 0 -94.334 15.667 -149.001 47c-54 30 -93 45 -117 45c-22.667 0 -41 -8 -55 -24s-21 -36.667 -21 -62v-8h-133v12c0 62 19.333 113.333 58 154s87.667 61 147 61c30.667 0 76.667 -14 138 -42s102.666 -42 123.999 -42c24 0 41 7 51 21
s17 36.333 21 67h131z" />
    <glyph glyph-name="ograve" unicode="&#xf2;" 
d="M389 889c83.333 0 150.335 -31.667 201.002 -95s76 -186 76 -368c0 -170.667 -26.5 -286.334 -79.5 -347.001s-118.167 -91 -195.5 -91c-96.667 0 -168.334 36.333 -215.001 109s-70 184.334 -70 335.001c0 184.667 26.667 307 80 367s119.666 90 198.999 90h4z
M492.002 385c0 148.667 -7 247.332 -21 295.999s-42 73 -84 73c-40 0 -67.333 -19 -82 -57s-22 -102.333 -22 -193c0 -176.667 8.16699 -284.667 24.5 -324s43.5 -59 81.5 -59c40.667 0 68 19.833 82 59.5s21 107.834 21 204.501zM498.002 984.998h-146l-231 279h242z" />
    <glyph glyph-name="oacute" unicode="&#xf3;" 
d="M389 889c83.333 0 150.335 -31.667 201.002 -95s76 -186 76 -368c0 -170.667 -26.5 -286.334 -79.5 -347.001s-118.167 -91 -195.5 -91c-96.667 0 -168.334 36.333 -215.001 109s-70 184.334 -70 335.001c0 184.667 26.667 307 80 367s119.666 90 198.999 90h4z
M492.002 385c0 148.667 -7 247.332 -21 295.999s-42 73 -84 73c-40 0 -67.333 -19 -82 -57s-22 -102.333 -22 -193c0 -176.667 8.16699 -284.667 24.5 -324s43.5 -59 81.5 -59c40.667 0 68 19.833 82 59.5s21 107.834 21 204.501zM625.002 1264l-221 -279h-148l133 279h236z
" />
    <glyph glyph-name="ocircumflex" unicode="&#xf4;" 
d="M389 889c83.333 0 150.335 -31.667 201.002 -95s76 -186 76 -368c0 -170.667 -26.5 -286.334 -79.5 -347.001s-118.167 -91 -195.5 -91c-96.667 0 -168.334 36.333 -215.001 109s-70 184.334 -70 335.001c0 184.667 26.667 307 80 367s119.666 90 198.999 90h4z
M492.002 385c0 148.667 -7 247.332 -21 295.999s-42 73 -84 73c-40 0 -67.333 -19 -82 -57s-22 -102.333 -22 -193c0 -176.667 8.16699 -284.667 24.5 -324s43.5 -59 81.5 -59c40.667 0 68 19.833 82 59.5s21 107.834 21 204.501zM689.002 984.998h-204l-109 170l-115 -170
h-204l217 279h190z" />
    <glyph glyph-name="otilde" unicode="&#xf5;" 
d="M389 889c83.333 0 150.335 -31.667 201.002 -95s76 -186 76 -368c0 -170.667 -26.5 -286.334 -79.5 -347.001s-118.167 -91 -195.5 -91c-96.667 0 -168.334 36.333 -215.001 109s-70 184.334 -70 335.001c0 184.667 26.667 307 80 367s119.666 90 198.999 90h4z
M492.002 385c0 148.667 -7 247.332 -21 295.999s-42 73 -84 73c-40 0 -67.333 -19 -82 -57s-22 -102.333 -22 -193c0 -176.667 8.16699 -284.667 24.5 -324s43.5 -59 81.5 -59c40.667 0 68 19.833 82 59.5s21 107.834 21 204.501zM731.002 1241
c-2.66699 -74 -21.165 -130.667 -55.498 -170s-80.833 -59 -139.5 -59c-44.667 0 -94.334 15.667 -149.001 47c-54 30 -93 45 -117 45c-22.667 0 -41 -8 -55 -24s-21 -36.667 -21 -62v-8h-133v12c0 62 19.333 113.333 58 154s87.667 61 147 61c30.667 0 76.667 -14 138 -42
s102.666 -42 123.999 -42c24 0 41 7 51 21s17 36.333 21 67h131z" />
    <glyph glyph-name="odieresis" unicode="&#xf6;" 
d="M389 889c83.333 0 150.335 -31.667 201.002 -95s76 -186 76 -368c0 -170.667 -26.5 -286.334 -79.5 -347.001s-118.167 -91 -195.5 -91c-96.667 0 -168.334 36.333 -215.001 109s-70 184.334 -70 335.001c0 184.667 26.667 307 80 367s119.666 90 198.999 90h4z
M492.002 385c0 148.667 -7 247.332 -21 295.999s-42 73 -84 73c-40 0 -67.333 -19 -82 -57s-22 -102.333 -22 -193c0 -176.667 8.16699 -284.667 24.5 -324s43.5 -59 81.5 -59c40.667 0 68 19.833 82 59.5s21 107.834 21 204.501zM576.002 1210
c29.333 0 54.333 -10.167 75 -30.5s31 -44.833 31 -73.5c0 -29.333 -10.333 -54.5 -31 -75.5s-45.667 -31.5 -75 -31.5c-28.667 0 -53.334 10.5 -74.001 31.5s-31 46.167 -31 75.5c0 28.667 10.333 53.167 31 73.5s45.334 30.5 74.001 30.5zM172.002 1210
c28.667 0 53.334 -10.167 74.001 -30.5s31 -44.833 31 -73.5c0 -29.333 -10.333 -54.5 -31 -75.5s-45.334 -31.5 -74.001 -31.5c-29.333 0 -54.333 10.5 -75 31.5s-31 46.167 -31 75.5c0 28.667 10.333 53.167 31 73.5s45.667 30.5 75 30.5z" />
    <glyph glyph-name="divide" unicode="&#xf7;" horiz-adv-x="1366" 
d="M682 1163c22 0 41.167 -8.33105 57.5 -24.998s24.5 -36.334 24.5 -59.001c0 -23.333 -8 -43.5 -24 -60.5s-35.333 -25.5 -58 -25.5c-23.333 0 -43.5 8.66699 -60.5 26s-25.5 37.666 -25.5 60.999c0 24.667 8.66699 44.667 26 60s37.333 23 60 23zM1229 598.002h-1090v127
h1090v-127zM682 338.002c23.333 0 43.166 -8.33301 59.499 -25s24.5 -36.334 24.5 -59.001c0 -24 -8.16699 -44.333 -24.5 -61s-36.166 -25 -59.499 -25s-43.5 8.33301 -60.5 25s-25.5 36.334 -25.5 59.001c0 23.333 8.5 43.5 25.5 60.5s37.167 25.5 60.5 25.5z" />
    <glyph glyph-name="oslash" unicode="&#xf8;" 
d="M547 834c54 -50 87.332 -108.499 99.999 -175.499s19 -141.833 19 -224.5c0 -150.667 -22.667 -262.334 -68 -335.001s-115 -109 -209 -109c-27.333 0 -63.333 5.33301 -108 16l-17 -39l-61 23l16 51c-43.333 41.333 -73.666 93.5 -90.999 156.5s-26 145.167 -26 246.5
c0 150 23.167 261.333 69.5 334s117.5 109 213.5 109c29.333 0 63.333 -6.33301 102 -19l13 39l61 -22zM443.999 729.001c-4 2 -11.332 6.66699 -21.999 14s-22.334 11 -35.001 11c-39.333 0 -66.5 -19.5 -81.5 -58.5s-22.5 -103.5 -22.5 -193.5v-47l2 -199h4zM487 414.001
l0.000976562 66.999c0 62.667 -2 110.667 -6 144h-4l-151 -475c15.333 -18 35.666 -27 60.999 -27c44 0 71.667 21.833 83 65.5s17 118.834 17 225.501z" />
    <glyph glyph-name="ugrave" unicode="&#xf9;" 
d="M651 276c0 -102 -20.333 -175.5 -61 -220.5s-107.667 -67.5 -201 -67.5s-161 22.167 -203 66.5s-63 115.5 -63 213.5v609h162v-611c0 -96.667 34.667 -145 104 -145c36.667 0 62.5 12.333 77.5 37s22.5 65.667 22.5 123v596h162v-601zM498 985h-146l-231 279h242z" />
    <glyph glyph-name="uacute" unicode="&#xfa;" 
d="M651 276c0 -102 -20.333 -175.5 -61 -220.5s-107.667 -67.5 -201 -67.5s-161 22.167 -203 66.5s-63 115.5 -63 213.5v609h162v-611c0 -96.667 34.667 -145 104 -145c36.667 0 62.5 12.333 77.5 37s22.5 65.667 22.5 123v596h162v-601zM625 1264l-221 -279h-148l133 279
h236z" />
    <glyph glyph-name="ucircumflex" unicode="&#xfb;" 
d="M651 276c0 -102 -20.333 -175.5 -61 -220.5s-107.667 -67.5 -201 -67.5s-161 22.167 -203 66.5s-63 115.5 -63 213.5v609h162v-611c0 -96.667 34.667 -145 104 -145c36.667 0 62.5 12.333 77.5 37s22.5 65.667 22.5 123v596h162v-601zM689 985h-204l-109 170l-115 -170
h-204l217 279h190z" />
    <glyph glyph-name="udieresis" unicode="&#xfc;" 
d="M651 276c0 -102 -20.333 -175.5 -61 -220.5s-107.667 -67.5 -201 -67.5s-161 22.167 -203 66.5s-63 115.5 -63 213.5v609h162v-611c0 -96.667 34.667 -145 104 -145c36.667 0 62.5 12.333 77.5 37s22.5 65.667 22.5 123v596h162v-601zM576 1210
c29.333 0 54.333 -10.167 75 -30.5s31 -44.833 31 -73.5c0 -29.333 -10.333 -54.5 -31 -75.5s-45.667 -31.5 -75 -31.5c-28.667 0 -53.334 10.5 -74.001 31.5s-31 46.167 -31 75.5c0 28.667 10.333 53.167 31 73.5s45.334 30.5 74.001 30.5zM172 1210
c28.667 0 53.334 -10.167 74.001 -30.5s31 -44.833 31 -73.5c0 -29.333 -10.333 -54.5 -31 -75.5s-45.334 -31.5 -74.001 -31.5c-29.333 0 -54.333 10.5 -75 31.5s-31 46.167 -31 75.5c0 28.667 10.333 53.167 31 73.5s45.667 30.5 75 30.5z" />
    <glyph glyph-name="yacute" unicode="&#xfd;" 
d="M711 874l-408 -1261h-143l143 465l-237 796h163l144 -602h4l178 602h156zM625 1264l-221 -279h-148l133 279h236z" />
    <glyph glyph-name="thorn" unicode="&#xfe;" 
d="M297 772c41.333 76.667 98 115 170 115c58 0 107.667 -27 149 -81s62 -178 62 -372c0 -185.333 -20.167 -306.333 -60.5 -363s-89.833 -85 -148.5 -85c-66 0 -122 36 -168 108h-4v-481h-166v1704h162v-545h4zM295 315c0 -55.333 9.33301 -100.5 28 -135.5
s42 -52.5 70 -52.5c39.333 0 67.666 21.333 84.999 64s26 110.667 26 204c0 128 -7.66699 218.833 -23 272.5s-44.666 80.5 -87.999 80.5c-29.333 0 -53 -16.333 -71 -49s-27 -76 -27 -130v-254z" />
    <glyph glyph-name="ydieresis" unicode="&#xff;" 
d="M711 874l-408 -1261h-143l143 465l-237 796h163l144 -602h4l178 602h156zM576 1210c29.333 0 54.333 -10.167 75 -30.5s31 -44.833 31 -73.5c0 -29.333 -10.333 -54.5 -31 -75.5s-45.667 -31.5 -75 -31.5c-28.667 0 -53.334 10.5 -74.001 31.5s-31 46.167 -31 75.5
c0 28.667 10.333 53.167 31 73.5s45.334 30.5 74.001 30.5zM172 1210c28.667 0 53.334 -10.167 74.001 -30.5s31 -44.833 31 -73.5c0 -29.333 -10.333 -54.5 -31 -75.5s-45.334 -31.5 -74.001 -31.5c-29.333 0 -54.333 10.5 -75 31.5s-31 46.167 -31 75.5
c0 28.667 10.333 53.167 31 73.5s45.667 30.5 75 30.5z" />
    <glyph glyph-name="Abreve" unicode="&#x102;" horiz-adv-x="854" 
d="M793 0h-166l-47 252h-269l-47 -252h-164l275 1274h141zM557 381l-111 604h-4l-106 -604h221zM733 1657c-10.667 -84 -41.332 -148 -91.999 -192s-117.667 -66 -201 -66c-176.667 0 -276.334 86 -299.001 258h123c18.667 -88.667 76 -133 172 -133
c97.333 0 155.333 44.333 174 133h123z" />
    <glyph glyph-name="abreve" unicode="&#x103;" 
d="M655 0h-163v106h-5c-42 -78.667 -96.333 -118 -163 -118c-56.667 0 -106.667 26.5 -150 79.5s-65 171.833 -65 356.5c0 164 16.333 282.167 49 354.5s88.667 108.5 168 108.5c37.333 0 67.5 -8.66699 90.5 -26s46.5 -45 70.5 -83h5v96h163v-874zM387 131
c42 0 70.0029 25 84.0029 75s21 135 21 255c0 105.333 -6.33301 179.5 -19 222.5s-39.334 64.5 -80.001 64.5s-68.834 -20 -84.501 -60s-23.5 -112.333 -23.5 -217c0 -123.333 6.16699 -210.833 18.5 -262.5s40.166 -77.5 83.499 -77.5zM690.003 1253
c-10.667 -84 -41.332 -148 -91.999 -192s-117.667 -66 -201 -66c-176.667 0 -276.334 86 -299.001 258h123c18.667 -88.667 76 -133 172 -133c97.333 0 155.333 44.333 174 133h123z" />
    <glyph glyph-name="Aogonek" unicode="&#x104;" horiz-adv-x="854" 
d="M1030 -365c-80 -40.667 -153 -61 -219 -61c-64 0 -116.5 19.833 -157.5 59.5s-61.5 93.5 -61.5 161.5c0 17.333 1.16699 36.5 3.5 57.5s6.5 44.167 12.5 69.5l19 78l-47 252h-269l-47 -252h-164l275 1274h141l277 -1274h-45c-19.333 -48 -29 -95 -29 -141
c0 -40.667 12.833 -76.167 38.5 -106.5s60.5 -45.5 104.5 -45.5c49.333 0 105.333 15.667 168 47v-119zM557 381l-111 604h-4l-106 -604h221z" />
    <glyph glyph-name="aogonek" unicode="&#x105;" 
d="M895 -365c-80 -40.667 -153.001 -61 -219.001 -61s-119 20.5 -159 61.5s-60 94.167 -60 159.5c0 36 4.33301 73.333 13 112l22 93v106h-5c-42 -78.667 -96.333 -118 -163 -118c-57.333 0 -107.5 27 -150.5 81s-64.5 172.333 -64.5 355c0 164.667 16.5 283 49.5 355
s88.833 108 167.5 108c62.667 0 116.334 -36.333 161.001 -109h5v96h163v-874h-43c-18.667 -53.333 -28 -100.333 -28 -141c0 -46.667 14.167 -83.667 42.5 -111s61.833 -41 100.5 -41c49.333 0 105.333 15.667 168 47v-119zM284.999 471
c0 -148.667 8.00195 -242.501 24.002 -281.501s42 -58.5 78 -58.5c39.333 0 66.666 22.833 81.999 68.5s23 132.834 23 261.501c0 106 -5.83301 180.333 -17.5 223s-38.834 64 -81.501 64c-42 0 -70.5 -21.5 -85.5 -64.5s-22.5 -113.833 -22.5 -212.5z" />
    <glyph glyph-name="Cacute" unicode="&#x106;" 
d="M668 23c-51.333 -24.667 -102.666 -37 -153.999 -37c-102.667 0 -191.5 39.667 -266.5 119s-112.5 245 -112.5 497c0 273.333 37.5 457.333 112.5 552s165.833 142 272.5 142c40 0 89.333 -6.66699 148 -20v-156c-38.667 15.333 -75 23 -109 23
c-66.667 0 -123.667 -33.833 -171 -101.5s-71 -201.167 -71 -400.5c0 -118.667 5.16699 -211.5 15.5 -278.5s34.166 -120.333 71.499 -160s84.333 -59.5 141 -59.5c33.333 0 74.333 10.333 123 31v-151zM717 1652l-221 -279h-148l133 279h236z" />
    <glyph glyph-name="cacute" unicode="&#x107;" horiz-adv-x="555" 
d="M510 27c-54 -26 -103.334 -38.999 -148.001 -38.999c-89.333 0 -154.666 36.667 -195.999 110s-62 188.666 -62 345.999c0 167.333 26.333 283.333 79 348s114 97 184 97c34.667 0 81.667 -10.333 141 -31v-139c-38.667 17.333 -69.334 26 -92.001 26
c-47.333 0 -81.666 -25.5 -102.999 -76.5s-32 -131.167 -32 -240.5c0 -198 43 -297 129 -297c24.667 0 58 10.333 100 31v-135zM601.999 1264l-221 -279h-148l133 279h236z" />
    <glyph glyph-name="Ccaron" unicode="&#x10c;" 
d="M668 23c-51.333 -24.667 -102.666 -37 -153.999 -37c-102.667 0 -191.5 39.667 -266.5 119s-112.5 245 -112.5 497c0 273.333 37.5 457.333 112.5 552s165.833 142 272.5 142c40 0 89.333 -6.66699 148 -20v-156c-38.667 15.333 -75 23 -109 23
c-66.667 0 -123.667 -33.833 -171 -101.5s-71 -201.167 -71 -400.5c0 -118.667 5.16699 -211.5 15.5 -278.5s34.166 -120.333 71.499 -160s84.333 -59.5 141 -59.5c33.333 0 74.333 10.333 123 31v-151zM787 1680l-225 -279h-193l-215 279h205l112 -168l111 168h205z" />
    <glyph glyph-name="ccaron" unicode="&#x10d;" horiz-adv-x="555" 
d="M510 27c-54 -26 -103.334 -38.999 -148.001 -38.999c-89.333 0 -154.666 36.667 -195.999 110s-62 188.666 -62 345.999c0 167.333 26.333 283.333 79 348s114 97 184 97c34.667 0 81.667 -10.333 141 -31v-139c-38.667 17.333 -69.334 26 -92.001 26
c-47.333 0 -81.666 -25.5 -102.999 -76.5s-32 -131.167 -32 -240.5c0 -198 43 -297 129 -297c24.667 0 58 10.333 100 31v-135zM655.999 1264l-225 -279h-193l-215 279h205l112 -168l111 168h205z" />
    <glyph glyph-name="Dcaron" unicode="&#x10e;" horiz-adv-x="854" 
d="M147 1274h248c117.333 0 209.833 -44.167 277.5 -132.5s101.5 -254.5 101.5 -498.5c0 -235.333 -29.667 -401.333 -89 -498s-166 -145 -320 -145h-218v1274zM319 1143v-1014c72 0 126.667 13.333 164 40s65.166 76.334 83.499 149.001s27.5 181.667 27.5 327
c0 185.333 -17.167 314.666 -51.5 387.999s-101.166 110 -200.499 110h-23zM758 1680l-225 -279h-193l-215 279h205l112 -168l111 168h205z" />
    <glyph glyph-name="dcaron" unicode="&#x10f;" horiz-adv-x="994" 
d="M496 1319h163.001v-1319h-161v117h-4c-39.333 -86 -95.333 -129 -168 -129c-42.667 0 -81.834 14.333 -117.501 43s-60.5 68.667 -74.5 120s-21 137 -21 257c0 136.667 6 234.5 18 293.5s35 105 69 138s77.333 49.5 130 49.5c68.667 0 122.667 -39 162 -117h4v547z
M498.001 451c0 108 -6.83398 184.499 -20.501 229.499s-41.167 67.5 -82.5 67.5s-69.666 -23.667 -84.999 -71s-23 -125.666 -23 -234.999c0 -113.333 7.16699 -194.166 21.5 -242.499s41.833 -72.5 82.5 -72.5c40 0 67.833 25.167 83.5 75.5s23.5 133.166 23.5 248.499z
M907 1184c0 -86.667 -30.333 -169.001 -91 -247.001l-52 29c44 66.667 66 128.334 66 185.001h-90v167h167v-134z" />
    <glyph glyph-name="Dslash" unicode="&#x110;" horiz-adv-x="854" 
d="M152 1274h243c119.333 0 212.333 -45.333 279 -136s100 -255.667 100 -495c0 -231.333 -29.333 -396.333 -88 -495s-165.667 -148 -321 -148h-213v598h-101v70h101v606zM319 129c118 0 193.333 40.3311 226 120.998s49 212.334 49 395.001
c0 192.667 -18 323.834 -54 393.501s-102 104.5 -198 104.5h-23v-475h132v-70h-132v-469z" />
    <glyph glyph-name="dcroat" unicode="&#x111;" 
d="M756 1094l-97 -0.000976562v-1094h-161v117h-4c-39.333 -86 -95.333 -129 -168 -129c-42.667 0 -81.5 14 -116.5 42s-59.833 66.5 -74.5 115.5s-22 136.5 -22 262.5c0 148.667 7.33301 251.834 22 309.501s39 100.667 73 129s74.667 42.5 122 42.5
c68.667 0 122.667 -39 162 -117h4v322h-164v71h164v154h163v-154h97v-71zM391 126.999c39.333 0 67 24.1689 83 72.502s24 132.166 24 251.499c0 113.333 -7.33301 191.166 -22 233.499s-41.667 63.5 -81 63.5c-44 0 -73 -25.333 -87 -76s-21 -127.334 -21 -230.001
c0 -105.333 6.83301 -184.166 20.5 -236.499s41.5 -78.5 83.5 -78.5z" />
    <glyph glyph-name="Eogonek" unicode="&#x118;" horiz-adv-x="662" 
d="M659 -365c-79.333 -40.667 -152.333 -61 -219 -61c-66 0 -119 20.5 -159 61.5s-60 94.167 -60 159.5c0 48 11.667 116.333 35 205h-115v1274h453v-146h-283v-403h262v-145h-262v-439h291v-141h-225c-19.333 -53.333 -29 -100.333 -29 -141c0 -48 14.667 -85.333 44 -112
s62.666 -40 99.999 -40c48.667 0 104.334 15.667 167.001 47v-119z" />
    <glyph glyph-name="eogonek" unicode="&#x119;" 
d="M707 -365c-80 -40.667 -153.334 -60.998 -220.001 -60.998c-66 0 -119 20.5 -159 61.5s-60 94.167 -60 159.5c0 50.667 12.333 119 37 205c-125.333 41.333 -188 180.666 -188 417.999c0 312.667 94 469 282 469c74.667 0 136.667 -28.167 186 -84.5
s74 -166.833 74 -331.5v-63h-368c0 -91.333 6.33301 -162 19 -212s43.667 -75 93 -75c37.333 0 62.833 14.667 76.5 44s20.5 72.666 20.5 129.999h149c-4 -191.333 -80.333 -293 -229 -305c-16.667 -47.333 -25 -91 -25 -131c0 -48 14.833 -85.333 44.5 -112
s62.834 -40 99.501 -40c49.333 0 105.333 15.667 168 47v-119zM493.999 535.002c0 88.667 -7.16699 151.334 -21.5 188.001s-39.5 55 -75.5 55c-40 0 -67.667 -17.833 -83 -53.5s-23 -98.834 -23 -189.501h203z" />
    <glyph glyph-name="Ecaron" unicode="&#x11a;" horiz-adv-x="662" 
d="M602 0h-461v1274h453v-146h-283v-403h262v-145h-262v-439h291v-141zM692 1680l-225 -279h-193l-215 279h205l112 -168l111 168h205z" />
    <glyph glyph-name="ecaron" unicode="&#x11b;" 
d="M659 408h-367.998c0 -94.667 6.5 -166.167 19.5 -214.5s43.833 -72.5 92.5 -72.5c37.333 0 62.666 14 75.999 42s20.333 72 21 132h149c-4.66699 -204.667 -91.334 -307 -260.001 -307c-181.333 0 -272 143.333 -272 430c0 312.667 94 469 282 469
c71.333 0 132.5 -27 183.5 -81s76.5 -165.667 76.5 -335v-63zM494.002 535c0 86.667 -7 148.834 -21 186.501s-39.333 56.5 -76 56.5c-43.333 0 -71.833 -19.833 -85.5 -59.5s-20.5 -100.834 -20.5 -183.501h203zM705.002 1264l-225 -279h-193l-215 279h205l112 -168
l111 168h205z" />
    <glyph glyph-name="dotlessi" unicode="&#x131;" horiz-adv-x="385" 
d="M131 872h162v-872h-162v872z" />
    <glyph glyph-name="Lacute" unicode="&#x139;" horiz-adv-x="662" 
d="M598 0h-461v1274h172v-1131h289v-143zM590 1652l-221 -279h-148l133 279h236z" />
    <glyph glyph-name="lacute" unicode="&#x13a;" horiz-adv-x="385" 
d="M293 0h-164v1319h164v-1319zM486 1723l-221 -279h-148l133 279h236z" />
    <glyph glyph-name="Lcaron" unicode="&#x13d;" horiz-adv-x="662" 
d="M598 0h-461v1274h172v-1131h289v-143zM649 1680l-225 -279h-193l-215 279h205l112 -168l111 168h205z" />
    <glyph glyph-name="lcaron" unicode="&#x13e;" horiz-adv-x="630" 
d="M293 0h-164v1319h164v-1319zM550 1182c0 -86.667 -30.333 -169.001 -91 -247.001l-52 29c44 66.667 66 128.334 66 185.001h-90v167h167v-134z" />
    <glyph glyph-name="Lslash" unicode="&#x141;" horiz-adv-x="662" 
d="M598 0h-455v500l-100 -115v92l100 113v682h168v-486l109 121v-86l-109 -127v-551h287v-143z" />
    <glyph glyph-name="lslash" unicode="&#x142;" horiz-adv-x="385" 
d="M393 776l-104 -88v-688h-160v553l-111 -92v76l111 92v688h160v-553l104 88v-76z" />
    <glyph glyph-name="Nacute" unicode="&#x143;" horiz-adv-x="854" 
d="M743 0h-135l-325 874h-4v-874h-154v1274h137l326 -875h4v875h151v-1274zM676 1652l-221 -279h-148l133 279h236z" />
    <glyph glyph-name="nacute" unicode="&#x144;" 
d="M287 877l-0.000976562 -84h4c42 64 98.667 96 170 96c126.667 0 190 -69 190 -207v-682h-162v635c0 86 -34 129 -102 129c-31.333 0 -56.166 -11.5 -74.499 -34.5s-27.5 -54.5 -27.5 -94.5v-635h-164v877h166zM632.999 1264l-221 -279h-148l133 279h236z" />
    <glyph glyph-name="Ncaron" unicode="&#x147;" horiz-adv-x="854" 
d="M743 0h-135l-325 874h-4v-874h-154v1274h137l326 -875h4v875h151v-1274zM764 1680l-225 -279h-193l-215 279h205l112 -168l111 168h205z" />
    <glyph glyph-name="ncaron" unicode="&#x148;" 
d="M287 877l-0.000976562 -84h4c42 64 98.667 96 170 96c126.667 0 190 -69 190 -207v-682h-162v635c0 86 -34 129 -102 129c-31.333 0 -56.166 -11.5 -74.499 -34.5s-27.5 -54.5 -27.5 -94.5v-635h-164v877h166zM698.999 1264l-225 -279h-193l-215 279h205l112 -168
l111 168h205z" />
    <glyph glyph-name="Odblacute" unicode="&#x150;" horiz-adv-x="938" 
d="M131 641c0 276.667 27.1689 455.667 81.502 537s143.833 122 268.5 122c142.667 0 237.5 -45.5 284.5 -136.5s70.5 -254.833 70.5 -491.5c0 -212 -10.5 -359 -31.5 -441s-57.333 -142.333 -109 -181s-121.834 -58 -210.501 -58c-91.333 0 -161.333 17.833 -210 53.5
s-84.834 93.5 -108.501 173.5s-35.5 220.667 -35.5 422zM655.002 631c0 242 -14.166 391.5 -42.499 448.5s-70.833 85.5 -127.5 85.5c-66.667 0 -112.334 -34.167 -137.001 -102.5s-37 -183.5 -37 -345.5v-70c0 -180.667 10 -312.5 30 -395.5s68 -124.5 144 -124.5
c46.667 0 86.667 23.333 120 70s50 175.667 50 387v47zM934.003 1653l-207 -279h-151l126 279h232zM584.003 1653l-211 -279h-146l123 279h234z" />
    <glyph glyph-name="odblacute" unicode="&#x151;" 
d="M389 889c83.333 0 150.335 -31.667 201.002 -95s76 -186 76 -368c0 -170.667 -26.5 -286.334 -79.5 -347.001s-118.167 -91 -195.5 -91c-96.667 0 -168.334 36.333 -215.001 109s-70 184.334 -70 335.001c0 184.667 26.667 307 80 367s119.666 90 198.999 90h4z
M492.002 385c0 148.667 -7 247.332 -21 295.999s-42 73 -84 73c-40 0 -67.333 -19 -82 -57s-22 -102.333 -22 -193c0 -176.667 8.16699 -284.667 24.5 -324s43.5 -59 81.5 -59c40.667 0 68 19.833 82 59.5s21 107.834 21 204.501zM820.002 1264l-207 -279h-151l126 279h232z
M470.002 1264l-211 -279h-146l123 279h234z" />
    <glyph glyph-name="OE" unicode="&#x152;" horiz-adv-x="1130" 
d="M1085 0h-452.002l-230 -6c-47.333 -1.33301 -96.666 17.667 -147.999 57s-87.5 101.166 -108.5 185.499s-31.5 222.5 -31.5 414.5c0 180 11.833 312.833 35.5 398.5s61.834 145.834 114.501 180.501s124.667 52 216 52l176 -8h418v-144h-282v-403h262v-145h-262v-439h292
v-143zM617.998 145v985.001l-86 5c-13.333 1.33301 -32.333 2 -57 2c-72 0 -119.333 -31.667 -142 -95s-34 -172.333 -34 -327c0 -17.333 2.5 -88.833 7.5 -214.5s8.66699 -197.834 11 -216.501s9.83301 -42 22.5 -70s30 -48.167 52 -60.5s50.333 -18.5 85 -18.5
c5.33301 0 23.5 1.66699 54.5 5s59.833 5 86.5 5z" />
    <glyph glyph-name="oe" unicode="&#x153;" horiz-adv-x="1130" 
d="M1036 401l-365.999 0.00195312c0 -102.667 7.66699 -175.667 23 -219s44.333 -65 87 -65c60 0 90 57.333 90 172h160c-6 -204.667 -92.667 -307 -260 -307c-76.667 0 -138 23.667 -184 71c-56.667 -47.333 -122.334 -71 -197.001 -71c-93.333 0 -164.5 34.5 -213.5 103.5
s-73.5 192.167 -73.5 369.5c0 169.333 28.167 283.666 84.5 342.999s129.5 89 219.5 89c63.333 0 124 -25.333 182 -76c35.333 25.333 65.333 44.333 90 57s55.334 19 92.001 19c60 0 111.667 -16.833 155 -50.5s72.666 -74.834 87.999 -123.501s23 -124.667 23 -228v-84z
M870.001 532.002c0 81.333 -7 141.668 -21 181.001s-41 59 -81 59c-36 0 -61.333 -18.833 -76 -56.5s-22 -98.834 -22 -183.501h200zM393.001 119.004c41.333 0 70.166 22 86.499 66s24.5 116 24.5 216c0 128 -7 218.5 -21 271.5s-43.333 79.5 -88 79.5
c-41.333 0 -70.666 -22.667 -87.999 -68s-26 -119 -26 -221c0 -125.333 6.83301 -214 20.5 -266s44.167 -78 91.5 -78z" />
    <glyph glyph-name="Racute" unicode="&#x154;" 
d="M702 0h-177.999l-200 598h-15v-598h-172v1274h238c194 0 291 -108.667 291 -326c0 -98.667 -14.333 -173 -43 -223s-75.334 -87.667 -140.001 -113zM309.001 715c66.667 1.33301 114.833 17.166 144.5 47.499s44.5 85.5 44.5 165.5c0 76.667 -13.5 131.334 -40.5 164.001
s-73.167 49 -138.5 49h-10v-426zM658 1652l-221 -279h-148l133 279h236z" />
    <glyph glyph-name="racute" unicode="&#x155;" horiz-adv-x="555" 
d="M496 745c-75.333 -2 -129 -16.333 -161 -43s-48 -86 -48 -178v-524h-166v874h166v-129h4c48 94.667 112.667 142 194 142l11 -2v-140zM551 1264l-221 -279h-148l133 279h236z" />
    <glyph glyph-name="Rcaron" unicode="&#x158;" 
d="M702 0h-177.999l-200 598h-15v-598h-172v1274h238c194 0 291 -108.667 291 -326c0 -98.667 -14.333 -173 -43 -223s-75.334 -87.667 -140.001 -113zM309.001 715c66.667 1.33301 114.833 17.166 144.5 47.499s44.5 85.5 44.5 165.5c0 76.667 -13.5 131.334 -40.5 164.001
s-73.167 49 -138.5 49h-10v-426zM703 1680l-225 -279h-193l-215 279h205l112 -168l111 168h205z" />
    <glyph glyph-name="rcaron" unicode="&#x159;" horiz-adv-x="555" 
d="M496 745c-75.333 -2 -129 -16.333 -161 -43s-48 -86 -48 -178v-524h-166v874h166v-129h4c48 94.667 112.667 142 194 142l11 -2v-140zM606 1264l-225 -279h-193l-215 279h205l112 -168l111 168h205z" />
    <glyph glyph-name="Sacute" unicode="&#x15a;" horiz-adv-x="662" 
d="M557 1110c-56 30 -106.333 45 -151 45s-82.834 -16 -114.501 -48s-47.5 -70.667 -47.5 -116c0 -32 9.33301 -66.167 28 -102.5s61.167 -94.333 127.5 -174s117 -148.834 152 -207.501s52.5 -126 52.5 -202c0 -94.667 -28.5 -171.5 -85.5 -230.5
s-131.5 -88.5 -223.5 -88.5c-50.667 0 -112.667 15 -186 45v153c2 -0.666992 4 -1.66699 6 -3c10 -7.33301 31 -18.5 63 -33.5s63.333 -22.5 94 -22.5c50 0 91.167 16.667 123.5 50s48.5 76 48.5 128c0 36 -8.16699 69.333 -24.5 100s-46.166 72.334 -89.499 125.001
l-115 141c-44.667 54.667 -77.667 104.667 -99 150s-32 99.333 -32 162c0 92.667 27 168 81 226s124 87 210 87c60 0 120.667 -15 182 -45v-139zM621 1652l-221 -279h-148l133 279h236z" />
    <glyph glyph-name="sacute" unicode="&#x15b;" horiz-adv-x="647" 
d="M539 725c-50 20.667 -92.999 31.001 -128.999 31.001c-34.667 0 -62.5 -8.66699 -83.5 -26s-31.5 -41 -31.5 -71c0 -24 8.83301 -47.667 26.5 -71s54 -58.833 109 -106.5s94 -90.334 117 -128.001s34.5 -79.167 34.5 -124.5c0 -68.667 -23.333 -125.667 -70 -171
s-106 -68 -178 -68c-46.667 0 -101.334 12.333 -164.001 37v135c60.667 -24.667 112 -37 154 -37c31.333 0 55.833 8.5 73.5 25.5s26.5 39.833 26.5 68.5c0 26.667 -11.667 55 -35 85s-64 68.333 -122 115c-83.333 67.333 -125 144.666 -125 231.999
c0 68.667 22.833 125.834 68.5 171.501s102.5 68.5 170.5 68.5c42 0 94.667 -11 158 -33v-133zM614.001 1264l-221 -279h-148l133 279h236z" />
    <glyph glyph-name="Scedilla" unicode="&#x15e;" horiz-adv-x="662" 
d="M557 1110c-56 30 -106.333 45 -151 45s-82.834 -16 -114.501 -48s-47.5 -70.667 -47.5 -116c0 -32 9.33301 -66.167 28 -102.5s61.167 -94.333 127.5 -174s117 -148.834 152 -207.501s52.5 -126 52.5 -202c0 -94.667 -28.5 -171.5 -85.5 -230.5
s-131.5 -88.5 -223.5 -88.5c-50.667 0 -112.667 15 -186 45v153c2 -0.666992 4 -1.66699 6 -3c10 -7.33301 31 -18.5 63 -33.5s63.333 -22.5 94 -22.5c50 0 91.167 16.667 123.5 50s48.5 76 48.5 128c0 36 -8.16699 69.333 -24.5 100s-46.166 72.334 -89.499 125.001
l-115 141c-44.667 54.667 -77.667 104.667 -99 150s-32 99.333 -32 162c0 92.667 27 168 81 226s124 87 210 87c60 0 120.667 -15 182 -45v-139zM429 -220c0 -86.667 -30.333 -169.001 -91 -247.001l-52 29c44 66.667 66 128.334 66 185.001h-90v167h167v-134z" />
    <glyph glyph-name="scedilla" unicode="&#x15f;" horiz-adv-x="647" 
d="M539 725c-50 20.667 -92.999 31.001 -128.999 31.001c-34.667 0 -62.5 -8.66699 -83.5 -26s-31.5 -41 -31.5 -71c0 -24 8.83301 -47.667 26.5 -71s54 -58.833 109 -106.5s94 -90.334 117 -128.001s34.5 -79.167 34.5 -124.5c0 -68.667 -23.333 -125.667 -70 -171
s-106 -68 -178 -68c-46.667 0 -101.334 12.333 -164.001 37v135c60.667 -24.667 112 -37 154 -37c31.333 0 55.833 8.5 73.5 25.5s26.5 39.833 26.5 68.5c0 26.667 -11.667 55 -35 85s-64 68.333 -122 115c-83.333 67.333 -125 144.666 -125 231.999
c0 68.667 22.833 125.834 68.5 171.501s102.5 68.5 170.5 68.5c42 0 94.667 -11 158 -33v-133zM462.001 -219.999c0 -86.667 -30.333 -169.001 -91 -247.001l-52 29c44 66.667 66 128.334 66 185.001h-90v167h167v-134z" />
    <glyph glyph-name="Scaron" unicode="&#x160;" horiz-adv-x="662" 
d="M557 1110c-56 30 -106.333 45 -151 45s-82.834 -16 -114.501 -48s-47.5 -70.667 -47.5 -116c0 -32 9.33301 -66.167 28 -102.5s61.167 -94.333 127.5 -174s117 -148.834 152 -207.501s52.5 -126 52.5 -202c0 -94.667 -28.5 -171.5 -85.5 -230.5
s-131.5 -88.5 -223.5 -88.5c-50.667 0 -112.667 15 -186 45v153c2 -0.666992 4 -1.66699 6 -3c10 -7.33301 31 -18.5 63 -33.5s63.333 -22.5 94 -22.5c50 0 91.167 16.667 123.5 50s48.5 76 48.5 128c0 36 -8.16699 69.333 -24.5 100s-46.166 72.334 -89.499 125.001
l-115 141c-44.667 54.667 -77.667 104.667 -99 150s-32 99.333 -32 162c0 92.667 27 168 81 226s124 87 210 87c60 0 120.667 -15 182 -45v-139zM664 1651l-225 -279h-193l-215 279h205l112 -168l111 168h205z" />
    <glyph glyph-name="scaron" unicode="&#x161;" horiz-adv-x="647" 
d="M539 725c-50 20.667 -92.999 31.001 -128.999 31.001c-34.667 0 -62.5 -8.66699 -83.5 -26s-31.5 -41 -31.5 -71c0 -24 8.83301 -47.667 26.5 -71s54 -58.833 109 -106.5s94 -90.334 117 -128.001s34.5 -79.167 34.5 -124.5c0 -68.667 -23.333 -125.667 -70 -171
s-106 -68 -178 -68c-46.667 0 -101.334 12.333 -164.001 37v135c60.667 -24.667 112 -37 154 -37c31.333 0 55.833 8.5 73.5 25.5s26.5 39.833 26.5 68.5c0 26.667 -11.667 55 -35 85s-64 68.333 -122 115c-83.333 67.333 -125 144.666 -125 231.999
c0 68.667 22.833 125.834 68.5 171.501s102.5 68.5 170.5 68.5c42 0 94.667 -11 158 -33v-133zM638.001 1264l-225 -279h-193l-215 279h205l112 -168l111 168h205z" />
    <glyph glyph-name="Tcedilla" unicode="&#x162;" horiz-adv-x="662" 
d="M627 1128h-195v-1128h-172v1128h-194v146h561v-146zM431 -220c0 -86.667 -30.333 -169.001 -91 -247.001l-52 29c44 66.667 66 128.334 66 185.001h-90v167h167v-134z" />
    <glyph glyph-name="tcedilla" unicode="&#x163;" horiz-adv-x="469" 
d="M436 745h-106v-745h-164v745h-105v129h105v238h164v-238h106v-129zM333 -220c0 -86.667 -30.333 -169.001 -91 -247.001l-52 29c44 66.667 66 128.334 66 185.001h-90v167h167v-134z" />
    <glyph glyph-name="Tcaron" unicode="&#x164;" horiz-adv-x="662" 
d="M627 1128h-195v-1128h-172v1128h-194v146h561v-146zM660 1680l-225 -279h-193l-215 279h205l112 -168l111 168h205z" />
    <glyph glyph-name="tcaron" unicode="&#x165;" horiz-adv-x="706" 
d="M436 745h-106v-745h-164v745h-105v129h105v238h164v-238h106v-129zM638 1182c0 -86.667 -30.333 -169.001 -91 -247.001l-52 29c44 66.667 66 128.334 66 185.001h-90v167h167v-134z" />
    <glyph glyph-name="Uring" unicode="&#x16e;" horiz-adv-x="854" 
d="M745 301c0 -212.667 -95.333 -319 -286 -319c-209.333 0 -314 105.667 -314 317v973h170v-901c0 -96.667 8.33301 -163.5 25 -200.5s53 -55.5 109 -55.5s91 19.5 105 58.5s21 108.167 21 207.5v891h170v-971zM446 1723c50 0 92.499 -17.832 127.499 -53.499
s52.5 -78.834 52.5 -129.501s-17.5 -94 -52.5 -130s-77.5 -54 -127.5 -54s-92.5 18.333 -127.5 55s-52.5 81 -52.5 133c0 48 17.833 89.833 53.5 125.5s77.834 53.5 126.501 53.5zM447.999 1432c28.667 0 53.667 10.6689 75 32.002s32 46.666 32 75.999
c0 30.667 -10.333 56.5 -31 77.5s-46 31.5 -76 31.5c-28.667 0 -53.5 -10.333 -74.5 -31s-31.5 -45.334 -31.5 -74.001c0 -31.333 10.333 -57.833 31 -79.5s45.667 -32.5 75 -32.5z" />
    <glyph glyph-name="uring" unicode="&#x16f;" 
d="M651 276c0 -102 -20.333 -175.5 -61 -220.5s-107.667 -67.5 -201 -67.5s-161 22.167 -203 66.5s-63 115.5 -63 213.5v609h162v-611c0 -96.667 34.667 -145 104 -145c36.667 0 62.5 12.333 77.5 37s22.5 65.667 22.5 123v596h162v-601zM385 1307
c50 0 92.499 -17.832 127.499 -53.499s52.5 -78.834 52.5 -129.501s-17.5 -94 -52.5 -130s-77.5 -54 -127.5 -54s-92.5 18.333 -127.5 55s-52.5 81 -52.5 133c0 48 17.833 89.833 53.5 125.5s77.834 53.5 126.501 53.5zM386.999 1016c28.667 0 53.667 10.6689 75 32.002
s32 46.666 32 75.999c0 30.667 -10.333 56.5 -31 77.5s-46 31.5 -76 31.5c-28.667 0 -53.5 -10.333 -74.5 -31s-31.5 -45.334 -31.5 -74.001c0 -31.333 10.333 -57.833 31 -79.5s45.667 -32.5 75 -32.5z" />
    <glyph glyph-name="Udblacute" unicode="&#x170;" horiz-adv-x="854" 
d="M745 301c0 -212.667 -95.333 -319 -286 -319c-209.333 0 -314 105.667 -314 317v973h170v-901c0 -96.667 8.33301 -163.5 25 -200.5s53 -55.5 109 -55.5s91 19.5 105 58.5s21 108.167 21 207.5v891h170v-971zM873 1653l-207 -279h-151l126 279h232zM523 1653l-211 -279
h-146l123 279h234z" />
    <glyph glyph-name="udblacute" unicode="&#x171;" 
d="M651 276c0 -102 -20.333 -175.5 -61 -220.5s-107.667 -67.5 -201 -67.5s-161 22.167 -203 66.5s-63 115.5 -63 213.5v609h162v-611c0 -96.667 34.667 -145 104 -145c36.667 0 62.5 12.333 77.5 37s22.5 65.667 22.5 123v596h162v-601zM811 1264l-207 -279h-151l126 279
h232zM461 1264l-211 -279h-146l123 279h234z" />
    <glyph glyph-name="Ydieresis" unicode="&#x178;" 
d="M721 1274l-248 -731v-543h-172v535l-242 739h170l158 -572h4l160 572h170zM576 1597c29.333 0 54.333 -10.167 75 -30.5s31 -44.833 31 -73.5c0 -29.333 -10.333 -54.5 -31 -75.5s-45.667 -31.5 -75 -31.5c-28.667 0 -53.334 10.5 -74.001 31.5s-31 46.167 -31 75.5
c0 28.667 10.333 53.167 31 73.5s45.334 30.5 74.001 30.5zM172 1597c28.667 0 53.334 -10.167 74.001 -30.5s31 -44.833 31 -73.5c0 -29.333 -10.333 -54.5 -31 -75.5s-45.334 -31.5 -74.001 -31.5c-29.333 0 -54.333 10.5 -75 31.5s-31 46.167 -31 75.5
c0 28.667 10.333 53.167 31 73.5s45.667 30.5 75 30.5z" />
    <glyph glyph-name="Zacute" unicode="&#x179;" 
d="M694 1274l-405 -1131h366v-143h-575l403 1128h-354v146h565zM643 1652l-221 -279h-148l133 279h236z" />
    <glyph glyph-name="zacute" unicode="&#x17a;" horiz-adv-x="662" 
d="M614 874l-311 -749h281v-125h-500l305 748h-293v126h518zM580 1264l-221 -279h-148l133 279h236z" />
    <glyph glyph-name="Zdot" unicode="&#x17b;" 
d="M694 1274l-405 -1131h366v-143h-575l403 1128h-354v146h565zM409 1626c29.333 0 54.333 -10.333 75 -31s31 -46 31 -76c0 -28.667 -10.333 -53.167 -31 -73.5s-45.667 -30.5 -75 -30.5c-28.667 0 -53.167 10.333 -73.5 31s-30.5 45 -30.5 73c0 30 10.167 55.333 30.5 76
s44.833 31 73.5 31z" />
    <glyph glyph-name="zdot" unicode="&#x17c;" horiz-adv-x="662" 
d="M614 874l-311 -749h281v-125h-500l305 748h-293v126h518zM358 1194c29.333 0 54.333 -10.333 75 -31s31 -46 31 -76c0 -28.667 -10.333 -53.167 -31 -73.5s-45.667 -30.5 -75 -30.5c-28.667 0 -53.167 10.333 -73.5 31s-30.5 45 -30.5 73c0 30 10.167 55.333 30.5 76
s44.833 31 73.5 31z" />
    <glyph glyph-name="Zcaron" unicode="&#x17d;" 
d="M694 1274l-405 -1131h366v-143h-575l403 1128h-354v146h565zM707 1651l-225 -279h-193l-215 279h205l112 -168l111 168h205z" />
    <glyph glyph-name="zcaron" unicode="&#x17e;" horiz-adv-x="662" 
d="M614 874l-311 -749h281v-125h-500l305 748h-293v126h518zM664 1264l-225 -279h-193l-215 279h205l112 -168l111 168h205z" />
    <glyph glyph-name="florin" unicode="&#x192;" horiz-adv-x="1139" 
d="M1090 1454l-34.999 -154.001c-66 16.667 -119.333 25 -160 25c-38 0 -65.167 -10.5 -81.5 -31.5s-30.833 -63.833 -43.5 -128.5l-20 -104h204l-24 -139h-205l-190 -1092c-16.667 -93.333 -44.834 -160 -84.501 -200s-99.167 -60 -178.5 -60c-64 0 -137.667 8 -221 24
l33 156c67.333 -14.667 119.333 -22 156 -22c39.333 0 67.5 11.5 84.5 34.5s30.5 62.5 40.5 118.5l178 1041h-201l23 139h202l23 135c20 122.667 54.667 202.834 104 240.501s112.333 56.5 189 56.5c26 0 55.333 -4 88 -12z" />
    <glyph glyph-name="circumflex" unicode="&#x2c6;" horiz-adv-x="682" 
d="M657 985h-204l-109 170l-115 -170h-204l217 279h190z" />
    <glyph glyph-name="caron" unicode="&#x2c7;" horiz-adv-x="682" 
d="M674 1264l-225 -279h-193l-215 279h205l112 -168l111 168h205z" />
    <glyph glyph-name="macron" unicode="&#x2c9;" horiz-adv-x="682" 
d="M653 1018h-624v147h624v-147z" />
    <glyph glyph-name="breve" unicode="&#x2d8;" horiz-adv-x="682" 
d="M637 1253c-10.667 -84 -41.332 -148 -91.999 -192s-117.667 -66 -201 -66c-176.667 0 -276.334 86 -299.001 258h123c18.667 -88.667 76 -133 172 -133c97.333 0 155.333 44.333 174 133h123z" />
    <glyph glyph-name="dotaccent" unicode="&#x2d9;" horiz-adv-x="682" 
d="M340 1194c29.333 0 54.333 -10.333 75 -31s31 -46 31 -76c0 -28.667 -10.333 -53.167 -31 -73.5s-45.667 -30.5 -75 -30.5c-28.667 0 -53.167 10.333 -73.5 31s-30.5 45 -30.5 73c0 30 10.167 55.333 30.5 76s44.833 31 73.5 31z" />
    <glyph glyph-name="ring" unicode="&#x2da;" horiz-adv-x="682" 
d="M342 1307c50 0 92.499 -17.832 127.499 -53.499s52.5 -78.834 52.5 -129.501s-17.5 -94 -52.5 -130s-77.5 -54 -127.5 -54s-92.5 18.333 -127.5 55s-52.5 81 -52.5 133c0 48 17.833 89.833 53.5 125.5s77.834 53.5 126.501 53.5zM343.999 1016
c28.667 0 53.667 10.6689 75 32.002s32 46.666 32 75.999c0 30.667 -10.333 56.5 -31 77.5s-46 31.5 -76 31.5c-28.667 0 -53.5 -10.333 -74.5 -31s-31.5 -45.334 -31.5 -74.001c0 -31.333 10.333 -57.833 31 -79.5s45.667 -32.5 75 -32.5z" />
    <glyph glyph-name="ogonek" unicode="&#x2db;" horiz-adv-x="682" 
d="M621 -365c-80 -40.667 -153.335 -61.001 -220.002 -61.001c-65.333 0 -118.166 20.333 -158.499 61s-60.5 94 -60.5 160c0 55.333 14.333 132 43 230h123c-26 -61.333 -39 -116.666 -39 -165.999c0 -43.333 13.833 -79.5 41.5 -108.5s61.834 -43.5 102.501 -43.5
c50.667 0 106.667 15.667 168 47v-119z" />
    <glyph glyph-name="tilde" unicode="&#x2dc;" horiz-adv-x="682" 
d="M676 1241c-2.66699 -74 -21.165 -130.667 -55.498 -170s-80.833 -59 -139.5 -59c-44.667 0 -94.334 15.667 -149.001 47c-54 30 -93 45 -117 45c-22.667 0 -41 -8 -55 -24s-21 -36.667 -21 -62v-8h-133v12c0 62 19.333 113.333 58 154s87.667 61 147 61
c30.667 0 76.667 -14 138 -42s102.666 -42 123.999 -42c24 0 41 7 51 21s17 36.333 21 67h131z" />
    <glyph glyph-name="hungarumlaut" unicode="&#x2dd;" horiz-adv-x="682" 
d="M764 1264l-207 -279h-151l126 279h232zM414 1264l-211 -279h-146l123 279h234z" />
    <glyph glyph-name="pi1" unicode="&#x3c0;" horiz-adv-x="1260" 
d="M1217 764h-226v-764h-182v764h-348v-764h-182v766c-86 0 -162.667 -17 -230 -51v147c74 38.667 154 58 240 58h928v-156z" />
    <glyph glyph-name="endash" unicode="&#x2013;" horiz-adv-x="1024" 
d="M1047 418h-1043v180h1043v-180z" />
    <glyph glyph-name="emdash" unicode="&#x2014;" horiz-adv-x="2048" 
d="M2068 422h-2070v182h2070v-182z" />
    <glyph glyph-name="quoteleft" unicode="&#x2018;" horiz-adv-x="385" 
d="M299 881h-170v163c0 29.333 8.5 66.333 25.5 111s39.167 87 66.5 127l58 -37c-28 -36 -47 -66.167 -57 -90.5s-15 -57.5 -15 -99.5h92v-174z" />
    <glyph glyph-name="quoteright" unicode="&#x2019;" horiz-adv-x="385" 
d="M299 1143c0 -93.333 -32 -180.666 -96 -261.999l-53 32c48.667 76 73 135 73 177c0 5.33301 -0.666992 10.666 -2 15.999h-96v174h174v-137z" />
    <glyph glyph-name="quotesinglbase" unicode="&#x201a;" horiz-adv-x="385" 
d="M350 180l-192 -448l-78 26l141 473z" />
    <glyph glyph-name="quotedblleft" unicode="&#x201c;" horiz-adv-x="662" 
d="M578 881l-171.999 -0.000976562v166c0 64 31.333 141.667 94 233l55 -35c-44.667 -61.333 -69.334 -124.666 -74.001 -189.999h97v-174zM299.001 880.999h-170v166c0 71.333 31.333 149 94 233l53 -33c-45.333 -70 -69 -134 -71 -192h94v-174z" />
    <glyph glyph-name="quotedblright" unicode="&#x201d;" horiz-adv-x="662" 
d="M578 1143c0 -40.667 -8.83301 -85.668 -26.5 -135.001s-41.167 -91.666 -70.5 -126.999l-55 32c46 66 70 130.333 72 193h-97v174h177v-137zM301 1143c0 -94.667 -32.667 -182 -98 -262l-53 32c47.333 67.333 71 126.333 71 177v16h-94v174h174v-137z" />
    <glyph glyph-name="quotedblbase" unicode="&#x201e;" horiz-adv-x="662" 
d="M580 43c0 -88.667 -32.333 -177.333 -97 -266l-55 33c41.333 55.333 66 119.333 74 192h-99v174h177v-133zM303 39.001c0 -91.333 -32 -178 -96 -260l-53 31c46 68 69 132 69 192h-94v174h174v-137z" />
    <glyph glyph-name="dagger" unicode="&#x2020;" horiz-adv-x="662" 
d="M371 805c29.333 0 62.168 6.49902 98.501 19.499s61.5 19.5 75.5 19.5c19.333 0 35.333 -6.5 48 -19.5s19 -29.833 19 -50.5c0 -16 -7 -30.167 -21 -42.5s-30.667 -18.5 -50 -18.5c-17.333 0 -41.166 6.66699 -71.499 20s-62.5 20.333 -96.5 21
c0 -48.667 7.5 -106.167 22.5 -172.5s22.5 -129.166 22.5 -188.499c0 -48 -7.5 -137.167 -22.5 -267.5s-22.5 -241.166 -22.5 -332.499v-168h-43c0 228 -12.333 436.333 -37 625c-11.333 96 -17 153.333 -17 172c0 33.333 7.16699 84 21.5 152s21.5 127.333 21.5 178
c-39.333 0 -74.166 -6.16699 -104.499 -18.5s-52.833 -18.5 -67.5 -18.5c-18.667 0 -34.5 5.66699 -47.5 17s-19.5 25.333 -19.5 42c0 20.667 6.33301 37.5 19 50.5s28.667 19.5 48 19.5c18 0 41.667 -6.83301 71 -20.5s64.666 -20.5 105.999 -20.5
c0 92 -11.667 189 -35 291c-12.667 58 -19 99.667 -19 125c0 76 24 114 72 114c25.333 0 45.666 -10.333 60.999 -31s23 -48.334 23 -83.001c0 -14 -4.66699 -40 -14 -78c-26.667 -102.667 -40.334 -214.667 -41.001 -336z" />
    <glyph glyph-name="daggerdbl" unicode="&#x2021;" horiz-adv-x="662" 
d="M367 27c42 0 80.668 7.99609 116.001 23.9961c24 10 45.333 15 64 15c19.333 0 35.333 -6.16699 48 -18.5s19 -27.5 19 -45.5c0 -42 -21 -63 -63 -63c-18 0 -45.167 6.33301 -81.5 19s-68.5 19 -96.5 19c0 -57.333 8.83301 -112.666 26.5 -165.999
s26.5 -88.666 26.5 -105.999c0 -57.333 -28.667 -86 -86 -86c-49.333 0 -74 31.333 -74 94c0 21.333 8.5 57.166 25.5 107.499s25.5 101.833 25.5 154.5c-48 0 -86 -6 -114 -18s-48.667 -18 -62 -18c-20.667 0 -37.334 5.66699 -50.001 17s-19 26 -19 44
c0 19.333 6 35.5 18 48.5s27 19.5 45 19.5c14 0 39.167 -7.16699 75.5 -21.5s73.5 -21.5 111.5 -21.5c-0.666992 56 -9.83398 105.5 -27.501 148.5s-26.5 75.833 -26.5 98.5c0 30 8.16699 63.333 24.5 100s24.5 71.667 24.5 105c0 29.333 -8.16699 62.166 -24.5 98.499
s-24.5 68.5 -24.5 96.5c0 26.667 8.16699 58.334 24.5 95.001s24.5 87 24.5 151c-34 0 -68.333 -7.33301 -103 -22s-59.667 -22 -75 -22c-43.333 0 -65 20.667 -65 62c0 20 5.83301 36.333 17.5 49s26.834 19 45.501 19c14 0 37 -6.83301 69 -20.5s68.333 -20.5 109 -20.5
c0 50.667 -8.83301 104.334 -26.5 161.001s-26.5 96.334 -26.5 119.001c0 54.667 27.333 82 82 82c52 0 78 -28 78 -84c0 -21.333 -8.5 -59.166 -25.5 -113.499s-25.5 -109.166 -25.5 -164.499c37.333 0 73.333 8.66699 108 26c28 12.667 51.333 19 70 19
c19.333 0 35 -6.5 47 -19.5s18 -29.167 18 -48.5c0 -18 -6.66699 -33.5 -20 -46.5s-29.666 -19.5 -48.999 -19.5c-12.667 0 -36.334 6.83301 -71.001 20.5s-69.667 20.5 -105 20.5c0 -50.667 8.16699 -98.834 24.5 -144.501s24.5 -79.834 24.5 -102.501
c0 -19.333 -7.83301 -49.333 -23.5 -90s-23.5 -73.667 -23.5 -99c0 -27.333 7.83301 -63.666 23.5 -108.999s23.5 -80 23.5 -104c0 -16 -8.5 -47.667 -25.5 -95s-25.5 -95.333 -25.5 -144z" />
    <glyph glyph-name="bullet" unicode="&#x2022;" horiz-adv-x="717" 
d="M358 971c70 0 129.833 -24.833 179.5 -74.5s74.5 -109.5 74.5 -179.5c0 -69.333 -24.833 -128.666 -74.5 -177.999s-109.5 -74 -179.5 -74c-69.333 0 -129 24.667 -179 74s-75 108.666 -75 177.999c0 70 25 129.833 75 179.5s109.667 74.5 179 74.5z" />
    <glyph glyph-name="ellipsis" unicode="&#x2026;" horiz-adv-x="2048" 
d="M1024 199c31.333 0 57.333 -10.667 78 -32s31 -47.666 31 -78.999c0 -30.667 -10.5 -56.834 -31.5 -78.501s-46.833 -32.5 -77.5 -32.5c-32.667 0 -59.667 10.667 -81 32s-32 48.333 -32 81c0 29.333 11 54.833 33 76.5s48 32.5 78 32.5h2zM1706 197
c30.667 0 56.833 -10.832 78.5 -32.499s32.5 -47.834 32.5 -78.501s-10.833 -56.834 -32.5 -78.501s-47.834 -32.5 -78.501 -32.5c-30 0 -56 11 -78 33s-33 48 -33 78c0 30.667 10.833 56.834 32.5 78.501s47.834 32.5 78.501 32.5zM335.999 197.001
c33.333 0 60.833 -10.667 82.5 -32s32.5 -48.333 32.5 -81c0 -30 -10.667 -55.667 -32 -77s-47 -32 -77 -32c-32.667 0 -60 10.833 -82 32.5s-33 48.5 -33 80.5c0 30 10.667 55.667 32 77s47 32 77 32z" />
    <glyph glyph-name="perthousand" unicode="&#x2030;" horiz-adv-x="1686" 
d="M981 1305l-700 -1377h-97l695 1377h102zM268 1300c70.667 0 121.168 -31.168 151.501 -93.501s45.5 -164.166 45.5 -305.499c0 -175.333 -19.833 -289.5 -59.5 -342.5s-87.5 -79.5 -143.5 -79.5c-64.667 0 -112.167 32.5 -142.5 97.5s-45.5 165.833 -45.5 302.5
c0 180.667 19.667 296 59 346s83.666 75 132.999 75h2zM201.001 876.999c-1.33301 -16.667 -1.99902 -41.333 -1.99902 -74c0 -78 4 -133.333 12 -166s24.333 -49 49 -49c30 0 50.5 21 61.5 63s16.5 111 16.5 207c0 138.667 -4 228.667 -12 270s-26 62 -54 62
c-14.667 0 -27.834 -7.33301 -39.501 -22s-18.167 -32 -19.5 -52zM1364 768c70.667 0 121.168 -31.332 151.501 -93.999s45.5 -164.334 45.5 -305.001c0 -172.667 -20.333 -286.5 -61 -341.5s-88 -82.5 -142 -82.5c-64.667 0 -112.334 32.667 -143.001 98
s-46 166.333 -46 303c0 180 19.667 295.333 59 346s84 76 134 76h2zM1296 344.001c-1.33301 -16.667 -1.99902 -41.333 -1.99902 -74c0 -77.333 4 -132.5 12 -165.5s24.667 -49.5 50 -49.5c30 0 50.5 21 61.5 63s16.5 111.333 16.5 208c0 136.667 -4.33301 226 -13 268
s-27 63 -55 63c-14 0 -26.833 -7.33301 -38.5 -22s-17.834 -31.667 -18.501 -51zM899.004 743.002c70.667 0 121.167 -30.999 151.5 -92.999s45.5 -163.333 45.5 -304c0 -178 -20.333 -293.167 -61 -345.5s-88 -78.5 -142 -78.5c-64.667 0 -112.167 32.667 -142.5 98
s-45.5 166.666 -45.5 303.999c0 171.333 18 284 54 338s82 81 138 81h2zM831.004 322.003c-1.33301 -16.667 -2 -41.334 -2 -74.001c0 -77.333 4.33301 -132.833 13 -166.5s25 -50.5 49 -50.5c30 0 50.5 21 61.5 63s16.5 111.667 16.5 209c0 138 -4.16699 227.5 -12.5 268.5
s-26.166 61.5 -53.499 61.5c-15.333 0 -28.833 -7.16699 -40.5 -21.5s-17.834 -31.166 -18.501 -50.499z" />
    <glyph glyph-name="guilsinglleft" unicode="&#x2039;" horiz-adv-x="449" 
d="M369 1024l-103 -469l99 -471h-164l-103 467l103 473h168z" />
    <glyph glyph-name="guilsinglright" unicode="&#x203a;" horiz-adv-x="449" 
d="M367 555l-103 -471h-168l103 471l-103 469h168z" />
    <glyph glyph-name="trademark" unicode="&#x2122;" horiz-adv-x="2048" 
d="M1784 651h-125v684h-4l-205 -684h-123l-215 695h-4v-695h-125v815h201l202 -651h5l196 651h197v-815zM891 1346h-266v-695h-136v695h-264v120h666v-120z" />
    <glyph glyph-name="Ohm" unicode="&#x2126;" horiz-adv-x="1573" 
d="M496 160c-72 44.667 -127 88 -165 130c-58 64 -102.667 139.167 -134 225.5s-47 181.833 -47 286.5c0 130.667 26.5 250.834 79.5 360.501s130 193.834 231 252.501s216.833 88 347.5 88c224 0 396 -84.667 516 -254c87.333 -124 131 -273.333 131 -448
c0 -112 -18 -211.167 -54 -297.5s-83 -160.5 -141 -222.5c-35.333 -38.667 -85 -79 -149 -121l364 6v-166h-575v177c53.333 26.667 94.666 52.667 123.999 78c48 40.667 88.667 89 122 145s58.5 115.667 75.5 179s25.5 129.333 25.5 198c0 92 -16.5 184.5 -49.5 277.5
s-83 163.833 -150 212.5s-148.167 73 -243.5 73c-127.333 0 -226 -40 -296 -120c-97.333 -112.667 -146 -259.334 -146 -440.001c0 -144.667 30.333 -268.834 91 -372.501s144.334 -179.5 251.001 -227.5v-180h-577v168z" />
    <glyph glyph-name="partialdiff" unicode="&#x2202;" horiz-adv-x="1012" 
d="M422 1138l-135.001 59.999c46.667 104.667 102.667 179.667 168 225s129.333 68 192 68c50.667 0 96.5 -13.167 137.5 -39.5s71.833 -56.5 92.5 -90.5c31.333 -52.667 54.5 -115 69.5 -187s22.5 -154.667 22.5 -248c0 -192 -28.833 -362.833 -86.5 -512.5
s-135.5 -260.167 -233.5 -331.5s-194.333 -107 -289 -107c-91.333 0 -165.5 30.333 -222.5 91s-85.5 146 -85.5 256c0 150.667 51 279.667 153 387c131.333 138 347.666 209.667 648.999 215c-2.66699 112 -10.667 197.333 -24 256s-36 103.834 -68 135.501
s-69.667 47.5 -113 47.5c-41.333 0 -81.666 -16.5 -120.999 -49.5s-74.666 -91.5 -105.999 -175.5zM849.999 795.999c-162.667 -9.33301 -281.833 -32.001 -357.5 -68.001s-138 -94.833 -187 -176.5s-73.5 -164.5 -73.5 -248.5c0 -55.333 17 -101 51 -137
s73.667 -54 119 -54c50 0 103.333 18.333 160 55c78 50.667 141.5 128.834 190.5 234.501s81.5 237.167 97.5 394.5z" />
    <glyph glyph-name="Delta" unicode="&#x2206;" horiz-adv-x="1253" 
d="M668 1409l577 -1409h-1233zM594 1059l-447 -959h844z" />
    <glyph glyph-name="product" unicode="&#x220f;" horiz-adv-x="1686" 
d="M161 1491h1362v-1922h-191v1748h-978v-1748h-193v1922z" />
    <glyph glyph-name="summation" unicode="&#x2211;" horiz-adv-x="1460" 
d="M139 1491h1237v-164h-988l607 -775l-649 -822h1040v-161h-1264v187l620 788l-603 772v175z" />
    <glyph glyph-name="fraction" unicode="&#x2215;" horiz-adv-x="276" 
d="M666 1315l-895 -1405h-131l895 1405h131z" />
    <glyph glyph-name="radical" unicode="&#x221a;" horiz-adv-x="1124" 
d="M1055 1868l-307 -1946l-498 1028l-197 -96l-33 68l299 147l404 -825l260 1634z" />
    <glyph glyph-name="infinity" unicode="&#x221e;" horiz-adv-x="1460" 
d="M681 843c49.333 80.667 99.668 138.833 151.001 174.5s108.666 53.5 171.999 53.5c88 0 161.167 -31.167 219.5 -93.5s87.5 -147.5 87.5 -255.5s-29.167 -193.167 -87.5 -255.5s-131.5 -93.5 -219.5 -93.5c-62.667 0 -119.667 17.667 -171 53s-102 93.666 -152 174.999
c-40 -56 -86 -98.667 -138 -128s-101.667 -44 -149 -44c-67.333 0 -124.5 26.167 -171.5 78.5s-70.5 123.833 -70.5 214.5s23.5 162 70.5 214s104.167 78 171.5 78c47.333 0 97 -14.667 149 -44s98 -71.666 138 -126.999zM774.002 723.999
c56 -86 95.334 -138.668 118.001 -158.001c35.333 -30 73.666 -45 114.999 -45c50.667 0 89.667 19.667 117 59s41 88 41 146c0 62.667 -15 111.334 -45 146.001s-66.667 52 -110 52c-34 0 -68.167 -12 -102.5 -36s-78.833 -78.667 -133.5 -164zM595.003 725.998
c-66.667 94 -130 140.999 -190 140.999c-30.667 0 -57.167 -12.333 -79.5 -37s-33.5 -59 -33.5 -103c0 -45.333 11 -80.666 33 -105.999s48.667 -38 80 -38c26 0 49.333 7 70 21c36 24 76 64.667 120 122z" />
    <glyph glyph-name="integral" unicode="&#x222b;" horiz-adv-x="561" 
d="M602 1760c0 -26 -9.83203 -47.335 -29.499 -64.002s-44.834 -25 -75.501 -25c-24.667 0 -44.667 8.33301 -60 25s-30 25 -44 25c-12 0 -21.167 -4.83301 -27.5 -14.5s-9.5 -24.167 -9.5 -43.5c0 -22.667 6.5 -108 19.5 -256s19.5 -331.667 19.5 -551
c0 -336.667 -10 -573.167 -30 -709.5s-46.333 -230.5 -79 -282.5c-17.333 -27.333 -39.833 -48 -67.5 -62s-56.167 -21 -85.5 -21c-32.667 0 -61.334 11.667 -86.001 35s-37 51.666 -37 84.999c0 25.333 8.5 47 25.5 65s38.5 27 64.5 27c22.667 0 44.5 -11 65.5 -33
s35.833 -33 44.5 -33c16.667 0 29.834 14.833 39.501 44.5s14.5 80.834 14.5 153.501c0 24.667 -2 90.334 -6 197.001s-6 294 -6 562c0 320.667 5.66699 533.5 17 638.5s25 176.833 41 215.5c19.333 46.667 42.333 81.334 69 104.001s54.667 34 84 34
c38 0 70.667 -10.833 98 -32.5s41 -49.5 41 -83.5z" />
    <glyph glyph-name="approxequal" unicode="&#x2248;" horiz-adv-x="1343" 
d="M1212 900c-101.333 -84.667 -196.001 -127 -284.001 -127c-48 0 -92.5 7.66699 -133.5 23s-102 42.333 -183 81s-144.167 58 -189.5 58c-85.333 0 -182.333 -45.667 -291 -137v143c104.667 83.333 202.334 125 293.001 125c40 0 80.5 -7 121.5 -21
s103.5 -40.833 187.5 -80.5s147.667 -59.5 191 -59.5c86.667 0 182.667 47 288 141v-146zM1212 500c-101.333 -84.667 -196.001 -127 -284.001 -127c-48 0 -92.5 7.66699 -133.5 23s-102 42.333 -183 81s-144.167 58 -189.5 58c-85.333 0 -182.333 -45.667 -291 -137v143
c104.667 83.333 202.334 125 293.001 125c40 0 80.5 -7 121.5 -21s103.5 -40.833 187.5 -80.5s147.667 -59.5 191 -59.5c86.667 0 182.667 47 288 141v-146z" />
    <glyph glyph-name="notequal" unicode="&#x2260;" horiz-adv-x="1366" 
d="M1227 367h-658l-160 -286l-100 57l127 229h-297v131h372l184 336h-556v133h633l159 289l101 -57l-129 -232h324v-133h-398l-187 -336h585v-131z" />
    <glyph glyph-name="lessequal" unicode="&#x2264;" horiz-adv-x="1366" 
d="M1225 147l-1084 457v119l1084 457v-144l-908 -372l908 -375v-142zM1227 -45h-1088v131h1088v-131z" />
    <glyph glyph-name="greaterequal" unicode="&#x2265;" horiz-adv-x="1366" 
d="M1225 604l-1086 -457v142l910 373l-910 374v144l1086 -459v-117zM1227 -45h-1088v131h1088v-131z" />
    <glyph glyph-name="lozenge" unicode="&#x25ca;" horiz-adv-x="1012" 
d="M962 763l-397 -763h-122l-397 763l397 763h122zM839 763l-335 652l-335 -652l335 -652z" />
    <glyph glyph-name="fi" unicode="&#xf001;" 
d="M446 1161c-12.667 8.66699 -31.668 13 -57.001 13c-53.333 0 -80 -41.667 -80 -125v-175h135v-122h-135v-752h-162v752h-88v122h88v189c0 170.667 65 256 195 256c34.667 0 69.334 -4.66699 104.001 -14v-144zM669.999 0h-168v874h168v-874z" />
    <glyph glyph-name="fi" unicode="&#xfb01;" 
d="M446 1161c-12.667 8.66699 -31.668 13 -57.001 13c-53.333 0 -80 -41.667 -80 -125v-175h135v-122h-135v-752h-162v752h-88v122h88v189c0 170.667 65 256 195 256c34.667 0 69.334 -4.66699 104.001 -14v-144zM669.999 0h-168v874h168v-874z" />
    <glyph glyph-name="fl" unicode="&#xf002;" 
d="M668 0h-166v1038c0 97.333 -34.333 146 -103 146c-30 0 -54.5 -12.167 -73.5 -36.5s-28.5 -55.833 -28.5 -94.5v-179h137v-124h-137v-750h-166v750h-90v124h90v170c0 88 22.833 155.5 68.5 202.5s110.834 70.5 195.501 70.5c87.333 0 154.666 -23.5 201.999 -70.5
s71 -113.5 71 -199.5v-1047z" />
    <glyph glyph-name="fl" unicode="&#xfb02;" 
d="M668 0h-166v1038c0 97.333 -34.333 146 -103 146c-30 0 -54.5 -12.167 -73.5 -36.5s-28.5 -55.833 -28.5 -94.5v-179h137v-124h-137v-750h-166v750h-90v124h90v170c0 88 22.833 155.5 68.5 202.5s110.834 70.5 195.501 70.5c87.333 0 154.666 -23.5 201.999 -70.5
s71 -113.5 71 -199.5v-1047z" />
    <glyph glyph-name=".null" horiz-adv-x="0" 
 />
    <glyph glyph-name="nonmarkingreturn" horiz-adv-x="373" 
 />
    <glyph glyph-name="apple" horiz-adv-x="1618" 
 />
    <glyph glyph-name="foursuperior" horiz-adv-x="532" 
d="M459 682h-51v-197h-119v197h-230v115l217 493h134v-495h49v-113zM289 797v280h-4l-119 -280h123z" />
    <glyph glyph-name="commaaccent" horiz-adv-x="449" 
d="M297 -220c0 -86.667 -30.333 -169.001 -91 -247.001l-52 29c44 66.667 66 128.334 66 185.001h-90v167h167v-134z" />
    </font>
</defs>
</svg>
